/* XPM */
static char *_4b7a7e960824f59b973fd42185ff13fVVGLlHOc4KpohuMp[] = {
/* columns rows colors chars-per-pixel */
"64 64 183 2 ",
"   c #110F13",
".  c #151315",
"X  c #191515",
"o  c #151418",
"O  c #191718",
"+  c #1F1B1C",
"@  c #250F12",
"#  c #241718",
"$  c #351818",
"%  c #1D1F22",
"&  c #252425",
"*  c #282626",
"=  c #252628",
"-  c #2A2B2C",
";  c #2D2D30",
":  c #2E3031",
">  c #333334",
",  c #373738",
"<  c #37393A",
"1  c #3B3B3C",
"2  c #431010",
"3  c #4B1211",
"4  c #531816",
"5  c #691212",
"6  c #7B1916",
"7  c #4A2823",
"8  c #522A28",
"9  c #453635",
"0  c #5D3333",
"q  c #5C3F3E",
"w  c #752D2B",
"e  c #693C3F",
"r  c #3E3F40",
"t  c #513F40",
"y  c #3F4243",
"u  c #2F4557",
"i  c #444546",
"p  c #474748",
"a  c #4B4B4C",
"s  c #504B4A",
"d  c #4F4F51",
"f  c #525253",
"g  c #595858",
"h  c #5E6160",
"j  c #636364",
"k  c #666669",
"l  c #6C6B6C",
"z  c #6F716F",
"x  c #727272",
"c  c #797977",
"v  c #7B7A7A",
"b  c #93180F",
"n  c #831911",
"m  c #8C1A14",
"M  c #8E1B1A",
"N  c #931911",
"B  c #981915",
"V  c #A11B16",
"C  c #AD1E14",
"Z  c #AB1E19",
"A  c #B71E16",
"S  c #B81E16",
"D  c #B61F18",
"F  c #B91F19",
"G  c #94201A",
"H  c #AC2018",
"J  c #B52117",
"K  c #B5231B",
"L  c #BB231C",
"P  c #972722",
"I  c #90322F",
"U  c #9A3F38",
"Y  c #B93429",
"T  c #AA3631",
"R  c #BC3830",
"E  c #C42B25",
"W  c #C7372D",
"Q  c #CC3B35",
"!  c #A4423B",
"~  c #BD4137",
"^  c #C3443B",
"/  c #BA4A43",
"(  c #A9625E",
")  c #8A706D",
"_  c #807F7D",
"`  c #AC6763",
"'  c #AE6864",
"]  c #B96C64",
"[  c #AC706F",
"{  c #A07D7C",
"}  c #BE7670",
"|  c #B57C7A",
" . c #C34640",
".. c #C44C44",
"X. c #C94E47",
"o. c #C34E49",
"O. c #C9544D",
"+. c #C95B55",
"@. c #D05A54",
"#. c #CE6964",
"$. c #D06F6A",
"%. c #C1776F",
"&. c #CE726C",
"*. c #D1796F",
"=. c #CC7671",
"-. c #CE7872",
";. c #D27772",
":. c #D27973",
">. c #DA7C79",
",. c #C1827D",
"<. c #D4837E",
"1. c #DC827E",
"2. c #E1827F",
"3. c #848384",
"4. c #8C8B8C",
"5. c #919392",
"6. c #999699",
"7. c #9B9A9C",
"8. c #BA8C8B",
"9. c #AF9190",
"0. c #9EA09C",
"q. c #A6A3A6",
"w. c #ACABAC",
"e. c #B6A8A5",
"r. c #AEB0AE",
"t. c #AEAFB0",
"y. c #B5B5B6",
"u. c #B8B6B6",
"i. c #BDBCBD",
"p. c #CF8680",
"a. c #DE8480",
"s. c #D18986",
"d. c #D98D89",
"f. c #D8918E",
"g. c #DA9592",
"h. c #DE9895",
"j. c #DB9E9B",
"k. c #E38681",
"l. c #DEA29E",
"z. c #DDA7A3",
"x. c #DFAAA7",
"c. c #DBAAA8",
"v. c #DFB1AE",
"b. c #C7B6B6",
"n. c #DFB2B1",
"m. c #E6A6A2",
"M. c #E0AEAE",
"N. c #E5B5B3",
"B. c #E6B9B5",
"V. c #E5BDBB",
"C. c #E6C1BF",
"Z. c #BEBEC0",
"A. c #E7BFC0",
"S. c #BDC0C0",
"D. c #C4C3C3",
"F. c #CAC8C7",
"G. c #C6C7C8",
"H. c #CCCCCC",
"J. c #D0CFCF",
"K. c #D1D1CF",
"L. c #CECED1",
"P. c #D1CFD3",
"I. c #CED0D0",
"U. c #D3D3D3",
"Y. c #DCDCDD",
"T. c #E7CAC9",
"R. c #EED2CF",
"E. c #EBD4D3",
"W. c #E7DEDE",
"Q. c #EEDCD9",
"!. c #DFE1DE",
"~. c #E3E3E3",
"^. c #EDE7E5",
"/. c #EAEAEB",
"(. c #F5EAE9",
"). c #EFEFF0",
"_. c #F2EFF1",
"`. c #F3F3F3",
"'. c #FAF4F5",
"]. c #F8F7F9",
"[. c #FAFBFB",
"{. c #FBFCFC",
"}. c #FDFDFD",
/* pixels */
"+ + + + + + + + + + + + + + + + + + + + + + + + + + + + + + + + + + + + + + + + + + + + + + + + + + + + + + + + + + + + + + + + ",
"+ + + + + + + + + + + + + + + + + + + + + + + + + + + + + + + + + + + + + + + + + + + + + + + + + + + + + + + + + + + + + + + + ",
"+ + + + + + + + + + + + + + + + + + + + + + + + + + + + + + + + + + + + + + + + + + + + + + + + + + + + + + + + + + + + + + + + ",
"+ + + + + + + + + + + + + + + + + + + + + + + + + + + + + + + + + + + + + + + + + + + + + + + + + + + + + + + + + + + + + + + + ",
"+ + + + + + + + + + + + + + + + + + + + + + + + + + + + + + + + + + + + + + + + + + + + + + + + + + + + + + + + + + + + + + + + ",
"+ + + + + + + + + + + + + + + + + + + + + + + + + + + + + + + + + + + + + + + + + + + + + + + + + + + + + + + + + + + + + + + + ",
"+ + + + + + + + + + + + + + + + + + + + + + + + + + + + + + + + + + + + + + + + + + + + + + + + + + + + + + + + + + + + + + + + ",
"+ + + + + + + + + + + + + + + + + + + + + + + + + + + + + + + + + + + + + + + + + + + + + + + + + + + + + + + + + + + + + + + + ",
"+ + + + + + + + + + + + + + + + + + + + + + + + + + + + + + + + + + + + + + + + + + + + + + + + + + + + + + + + + + + + + + + + ",
"+ + + + + + + + + + + + + + + + + + + + + + + + + + + + + + + + + + + + + + + + + + + + + + + + + + + + + + + + + + + + + + + + ",
"+ + + + + + + + + + + + + + + + + + + + + + + + + + + + + + O O # O O + + + + + + + + + + + + + + + + + + + + + + + + + + + + + ",
"+ + + + + + + + + + + + + + + + + + + + + + + + + + + + O = v F.u.F.c & O + + + + + + + + + + + + + + + + + + + + + + + + + + + ",
"+ + + + + + + + + + + + + + + + + + + + + + + + O + = i 5.`.{.x u 3.{./.4.y = + O + + + + + + + + + + + + + + + + + + + + + + + ",
"+ + + + + + + + + + + + + + + + + + + + + + O 1 t./.].[.}.}.}.Y.3.Y.}.}.}.}./.i.4.: + + + + + + + + + + + + + + + + + + + + + + ",
"+ + + + + + + + + + + + + + + + + + + + + + 1 /.}.}.Y.D.].`.)././././.`.].[.}.Y.H.D.> + + + + + + + + + + + + + + + + + + + + + ",
"+ + + + + + + + + + + + + + + + + + + + + . u.{./.x j i././././././././././.)./.H.H.4.. + + + + + + + + + + + + + + + + + + + + ",
"+ + + + + + + + + + + + + + + + + + + + + + )./.f Z././././././././././././././.F.H.D.+ + + + + + + + + + + + + + + + + + + + + ",
"+ + + + + + + + + + + + + + + + + + + + + 1 }.v u./././././././././././././././.G.F.J.; + + + + + + + + + + + + + + + + + + + + ",
"+ + + + + + + + + + + + + + + + + + + + + p }.3././././././././././././././././.H.j U., + + + + + + + + + + + + + + + + + + + + ",
"+ + + + + + + + + + + + + + + + + + + + + p }.`././././././././././././././././.H.a F.1 + + + + + + + + + + + + + + + + + + + + ",
"+ + + + + + + + + + + + + + + + + + + + + p }.`.)./././././././././././././././.D.f D.> + + + + + + + + + + + + + + + + + + + + ",
"+ + + + + + + + + + + + + + + + + + + + + 1 {.`.`.`./.^.T.c.s.;.e 9 ,.) x r.~.~.i.d D.> + + + + + + + + + + + + + + + + + + + + ",
"+ + + + + + + + + + + + + + + + + + + + + * [.`._.T.+.Y J S S S F F F Z B 6 7 s 5.a D.& + + + + + + + + + + + + + + + + + + + + ",
"+ + + + + + + + + + + + + + + + + + + + + + `.V.&.j.A A A D S F F J J J F S F m 4 * D.+ + + + + + + + + + + + + + + + + + + + + ",
"+ + + + + + + + + + + + + + + + + + + + + . ~.l.O.x.J ^ O.@.O.O.O.O.O.O.O. .Z N N t i.. + + + + + + + + + + + + + + + + + + + + ",
"+ + + + + + + + + + + + + + + + + + + + +   K.N.o.v.~ :.-.-.:.:.:.:.:.:.:.:.T N m g w.. + + + + + + + + + + + + + + + + + + + + ",
"+ + + + + + + + + + + + + + + + + + + + + . F.T./ M...:.:.:.j.d.-.B.V.<.:.-.! N n k 7.. + + + + + + + + + + + + + + + + + + + + ",
"+ + + + + + + + + + + + + + + + + + + + + . D.R...+...;.1.a.E.C.-.Q.E.g.:.=.! N n l 6.. + + + + + + + + + + + + + + + + + + + + ",
"+ + + + + + + + + + + + + + + + + + + + + . D.e./ W ..:.1.m.Q.(.p.E.C.z.*.%.! N n l 6.. + + + + + + + + + + + + + + + + + + + + ",
"+ + + + + + + + + + + + + + + + + + + + + . H.k / ^ O.a.;.j.<.g.f.N.B.<.:.} ! N b 9.q.. + + + + + + + + + + + + + + + + + + + + ",
"+ + + + + + + + + + + + + + + + + + + + + . !.{ ;.<.X.>.;.:.;.;.h.:.:.:.-.} ! N N 8.y.. + + + + + + + + + + + + + + + + + + + + ",
"+ + + + + + + + + + + + + + + + + + + + + + `.q <.;...:.>.k.:.j.(.j.:.:.-.} ! N N | G.+ + + + + + + + + + + + + + + + + + + + + ",
"+ + + + + + + + + + + + + + + + + + + + + 1 ].0 f.$...:.:.>.:.A.'.V.:.:.-.} ! N N ' I.- + + + + + + + + + + + + + + + + + + + + ",
"+ + + + + + + + + + + + + + + + + + + + + p `.0 g.#.X.a.a.:.:.:.B.;.;.:.-.} ! N N ( U.< + + + + + + + + + + + + + + + + + + + + ",
"+ + + + + + + + + + + + + + + + + + + + + g ].0 d.=.Q >.2.>.;.;.;.;.;.;.=.] P N N ` U.r + + + + + + + + + + + + + + + + + + + + ",
"+ + + + + + + + + + + + + + + + + + + + + f }.q #.j.E W Q E L L L L L L K N N N N | P.1 + + + + + + + + + + + + + + + + + + + + ",
"+ + + + + + + + + + + + + + + + + + + + + < [.v U B. .L L D A S A A A A A b N N M b.H.- + + + + + + + + + + + + + + + + + + + + ",
"+ + + + + + + + + + + + + + + + + + + + + . U./.9 / o.A A A A A A A S A A b N N [ H.w.. + + + + + + + + + + + + + + + + + + + + ",
"+ + + + + + + + + + + + + + + + + + + + + + z [.D.7 M D S A A A S S A A C N G ` F.H.f + + + + + + + + + + + + + + + + + + + + + ",
"+ + + + + + + + + + + + + + + + + + + + + + . 0.[./._ 8 K S J S S F F S V ( b.H.H.v . + + + + + + + + + + + + + + + + + + + + + ",
"+ + + + + + + + + + + + + + + + + + + + + + + . c /.}.].&.L v.z.R M.x.H ` L.L.S.h . + + + + + + + + + + + + + + + + + + + + + + ",
"+ + + + + + + + + + + + + + + + + + + + + + + + O & v H.W.n.[.}.'.}./.8.i.q.k % + + + + + + + + + + + + + + + + + + + + + + + + ",
"+ + + + + + + + + + + + + + + + + + + + + + + + + + + O g }.a 6.[.4.p K.9 O + + + + + + + + + + + + + + + + + + + + + + + + + + ",
"+ + + + + + + + + + + + + + + + + + + + + + + + + + + + a }.> + > + > K.1 + + + + + + + + + + + + + + + + + + + + + + + + + + + ",
"+ + + + + + + + + + + + + + + + + + + + + + + + + + + + 1 ~.= + + + & i.- + + + + + + + + + + + + + + + + + + + + + + + + + + + ",
"+ + + + + + + + + + + + + + + + + + + + + + + + + + + + + + + + + + + + + + + + + + + + + + + + + + + + + + + + + + + + + + + + ",
"+ + + + + + + + + + + + + + + + + + + + + + + + + + + + + + + + + + + + + + + + + + + + + + + + + + + + + + + + + + + + + + + + ",
"+ + + + + + + + + + + + + + + + + + + + + + + + + + + + + + + O X O + + + + + + + + + + + + + + + + + + + + + + + + + + + + + + ",
"+ + + + + + + + + + + + + + + + + + + + + + + + + + + + + + + $ T @ + # + + + + + + + + + + + + + + + + + + + + + + + + + + + + ",
"+ + + + + + + + + + + + + + + + + + + + + + + + + + + + + + o I K 6 . + + + + + + + + + + + + + + + + + + + + + + + + + + + + + ",
"+ + + + + + + + + + + + + + + + + + + + + + + + + + + + + + $ Y A Z @ + + + + + + + + + + + + + + + + + + + + + + + + + + + + + ",
"+ + + + + + + + + + + + + + + + + + + + + + + + + + + + + O w D A V 3 O + + + + + + + + + + + + + + + + + + + + + + + + + + + + ",
"+ + + + + + + + + + + + + + + + + + + + + + + + + + + + + + 4 F C m $ + + + + + + + + + + + + + + + + + + + + + + + + + + + + + ",
"+ + + + + + + + + + + + + + + + + + + + + + + + + + + + + + . 3 5 2 . + + + + + + + + + + + + + + + + + + + + + + + + + + + + + ",
"+ + + + + + + + + + + + + + + + + + + + + + + + + + + + + + + O O O + + + + + + + + + + + + + + + + + + + + + + + + + + + + + + ",
"+ + + + + + + + + + + + + + + + + + + + + + + + + + + + + + + + + + + + + + + + + + + + + + + + + + + + + + + + + + + + + + + + ",
"+ + + + + + + + + + + + + + + + + + + + + + + + + + + + + + + + + + + + + + + + + + + + + + + + + + + + + + + + + + + + + + + + ",
"+ + + + + + + + + + + + + + + + + + + + + + + + + + + + + + + + + + + + + + + + + + + + + + + + + + + + + + + + + + + + + + + + ",
"+ + + + + + + + + + + + + + + + + + + + + + + + + + + + + + + + + + + + + + + + + + + + + + + + + + + + + + + + + + + + + + + + ",
"+ + + + + + + + + + + + + + + + + + + + + + + + + + + + + + + + + + + + + + + + + + + + + + + + + + + + + + + + + + + + + + + + ",
"+ + + + + + + + + + + + + + + + + + + + + + + + + + + + + + + + + + + + + + + + + + + + + + + + + + + + + + + + + + + + + + + + ",
"+ + + + + + + + + + + + + + + + + + + + + + + + + + + + + + + + + + + + + + + + + + + + + + + + + + + + + + + + + + + + + + + + ",
"+ + + + + + + + + + + + + + + + + + + + + + + + + + + + + + + + + + + + + + + + + + + + + + + + + + + + + + + + + + + + + + + + ",
"+ + + + + + + + + + + + + + + + + + + + + + + + + + + + + + + + + + + + + + + + + + + + + + + + + + + + + + + + + + + + + + + + "
};
