/* XPM */
static char *_935b1b14a0649b1c56323ad97b67f8elF2Iueh259O0U4JG[] = {
/* columns rows colors chars-per-pixel */
"64 64 176 2 ",
"   c None",
".  c #381918",
"X  c #282524",
"o  c #2D2D30",
"O  c #2E3031",
"+  c #333334",
"@  c #373738",
"#  c #37393A",
"$  c #3B3B3C",
"%  c #4B1211",
"&  c #431010",
"*  c #531816",
"=  c #691212",
"-  c #7B1916",
";  c #4A2823",
":  c #522A28",
">  c #453635",
",  c #5D3333",
"<  c #5C3F3E",
"1  c #752D2B",
"2  c #693C3F",
"3  c #3E3F40",
"4  c #513F40",
"5  c #3F4243",
"6  c #2F4557",
"7  c #444546",
"8  c #474748",
"9  c #4B4B4C",
"0  c #504B4A",
"q  c #4F4F51",
"w  c #525253",
"e  c #595858",
"r  c #5E6160",
"t  c #636364",
"y  c #6C6B6C",
"u  c #666669",
"i  c #6F716F",
"p  c #727272",
"a  c #797977",
"s  c #7B7A7A",
"d  c #89170F",
"f  c #93180F",
"g  c #831911",
"h  c #8C1A14",
"j  c #8E1B1A",
"k  c #931911",
"l  c #981915",
"z  c #AD1E14",
"x  c #AB1E19",
"c  c #A11B16",
"v  c #B71E16",
"b  c #B81E16",
"n  c #B61F18",
"m  c #B91F19",
"M  c #94201A",
"N  c #AC2018",
"B  c #B52117",
"V  c #B5231B",
"C  c #BB231C",
"Z  c #972722",
"A  c #90322F",
"S  c #9A3F38",
"D  c #B73026",
"F  c #BB372C",
"G  c #AA3631",
"H  c #BC3830",
"J  c #C42B25",
"K  c #C7372D",
"L  c #CC3B35",
"P  c #A4423B",
"I  c #BD4137",
"U  c #C3443B",
"Y  c #BA4A43",
"T  c #A9625E",
"R  c #8A706D",
"E  c #807F7D",
"W  c #AC6763",
"Q  c #AE6864",
"!  c #B96C64",
"~  c #AC706F",
"^  c #A07D7C",
"/  c #BE7670",
"(  c #B57C7A",
")  c #C44C44",
"_  c #C94E47",
"`  c #C34E49",
"'  c #C34640",
"]  c #C9544D",
"[  c #C95B55",
"{  c #D05A54",
"}  c #CE6964",
"|  c #D06F6A",
" . c #CE726C",
".. c #C1776F",
"X. c #D1796F",
"o. c #CC7671",
"O. c #CE7872",
"+. c #D27772",
"@. c #D27973",
"#. c #DA7C79",
"$. c #C1827D",
"%. c #D4837E",
"&. c #DC827E",
"*. c #E1827F",
"=. c #848384",
"-. c #8C8B8C",
";. c #919392",
":. c #999699",
">. c #9B9A9C",
",. c #BA8C8B",
"<. c #AF9190",
"1. c #9EA09C",
"2. c #ACABAC",
"3. c #A6A3A6",
"4. c #B6A8A5",
"5. c #AEB0AE",
"6. c #AEAFB0",
"7. c #B5B5B6",
"8. c #BDBCBD",
"9. c #B8B6B6",
"0. c #CF8680",
"q. c #DE8480",
"w. c #D98D89",
"e. c #D18986",
"r. c #D8918E",
"t. c #DA9592",
"y. c #DB9E9B",
"u. c #DE9895",
"i. c #E38681",
"p. c #DEA29E",
"a. c #DDA7A3",
"s. c #DFAAA7",
"d. c #DBAAA8",
"f. c #DFB1AE",
"g. c #C7B6B6",
"h. c #DFB2B1",
"j. c #E0AEAE",
"k. c #E6A6A2",
"l. c #E5B5B3",
"z. c #E6B9B5",
"x. c #E5BDBB",
"c. c #E6C1BF",
"v. c #BEBEC0",
"b. c #E7BFC0",
"n. c #BDC0C0",
"m. c #C4C3C3",
"M. c #CAC8C7",
"N. c #CCCCCC",
"B. c #C6C7C8",
"V. c #D0CFCF",
"C. c #D1D1CF",
"Z. c #CECED1",
"A. c #D1CFD3",
"S. c #CED0D0",
"D. c #D3D3D3",
"F. c #DCDCDD",
"G. c #E6C7C7",
"H. c #E8CCCA",
"J. c #EED2CF",
"K. c #EBD4D3",
"L. c #E7DEDE",
"P. c #EEDCD9",
"I. c #DFE1DE",
"U. c #E3E3E3",
"Y. c #EAEAEB",
"T. c #EDE7E5",
"R. c #F5EAE9",
"E. c #EFEFF0",
"W. c #F2EFF1",
"Q. c #F3F3F3",
"!. c #FAF4F5",
"~. c #F7F7F9",
"^. c #F8F7F8",
"/. c #FDFDFD",
"(. c #FDFEFE",
"). c #FBFCFB",
/* pixels */
"                                                                                                                                ",
"                                                                                                                                ",
"                                                                                                                                ",
"                                                                                                                                ",
"                                                                                                                                ",
"                                                                                                                                ",
"                                                                                                                                ",
"                                                                                                                                ",
"                                                                                                                                ",
"                                                                                                                                ",
"                                                                                                                                ",
"                                                            s M.9.M.a                                                           ",
"                                                      7 ;.Q.).p 6 =.).Y.-.5                                                     ",
"                                              $ 6.Y.~.)./././.F.=.F././././.Y.8.-.O                                             ",
"                                            $ Y././.F.m.~.Q.E.Y.Y.Y.Y.Q.~.)./.F.N.m.+                                           ",
"                                            9.).Y.p t 8.Y.Y.Y.Y.Y.Y.Y.Y.Y.Y.E.Y.N.N.-.                                          ",
"                                            E.Y.w v.Y.Y.Y.Y.Y.Y.Y.Y.Y.Y.Y.Y.Y.Y.M.N.m.                                          ",
"                                          $ /.s 9.Y.Y.Y.Y.Y.Y.Y.Y.Y.Y.Y.Y.Y.Y.Y.B.M.V.o                                         ",
"                                          8 /.=.Y.Y.Y.Y.Y.Y.Y.Y.Y.Y.Y.Y.Y.Y.Y.Y.N.t D.@                                         ",
"                                          8 /.Q.Y.Y.Y.Y.Y.Y.Y.Y.Y.Y.Y.Y.Y.Y.Y.Y.N.9 M.$                                         ",
"                                          8 /.Q.E.Y.Y.Y.Y.Y.Y.Y.Y.Y.Y.Y.Y.Y.Y.Y.m.w m.@                                         ",
"                                          $ ).Q.Q.Q.Y.T.H.d.e.+.2 > $.R p 5.U.U.8.q m.+                                         ",
"                                            ).Q.W.G.[ F B b b b m m m x l - ; 0 ;.9 m.                                          ",
"                                            Q.x. .y.v v v n b m m B B B m b m h * X m.                                          ",
"                                            U.p.] s.B U ] { ] ] ] ] ] ] ] ' x k k 4 8.                                          ",
"                                            C.l.` f.I @.O.O.@.@.@.@.@.@.@.@.G k h e 2.                                          ",
"                                            M.H.Y j.) @.@.@.y.w.O.z.x.%.@.O.P k g u >.                                          ",
"                                            m.J.) [ ) +.&.q.K.c.O.P.K.t.@.o.P k g y :.                                          ",
"                                            m.4.Y K ) @.&.k.P.R.0.K.c.a.X...P k g y :.                                          ",
"                                            N.u Y U ] q.+.y.%.t.r.l.z.%.@./ P k f <.3.                                          ",
"                                            I.^ +.%._ #.+.@.+.+.u.@.@.@.O./ P k k ,.7.                                          ",
"                                            Q.< %.+.) @.#.i.@.y.R.y.@.@.O./ P k k ( B.                                          ",
"                                          $ ^., r.| ) @.@.#.@.b.!.x.@.@.O./ P k k Q S.                                          ",
"                                          8 Q., t.} _ q.q.@.@.@.z.+.+.@.O./ P k k T D.#                                         ",
"                                          e ~., w.o.L #.*.#.+.+.+.+.+.+.o.! Z k k W D.3                                         ",
"                                          w /.< } y.J K L J C C C C C C V k k k k ( A.$                                         ",
"                                          # ).s S z.' C C n v b v v v v v f k k j g.N.                                          ",
"                                            D.Y.> Y ` v v v v v v v b v v f k k ~ N.2.                                          ",
"                                            i ).m.; j n b v v v b b v v z k M W M.N.w                                           ",
"                                              1.).Y.E : V b B b b m m b c T g.N.N.s                                             ",
"                                                a Y./.~. .C f.a.H j.s.N W Z.Z.n.r                                               ",
"                                                    s N.L.h.)./.^./.Y.,.8.3.u                                                   ",
"                                                        e /.9 :.).-.8 C.>                                                       ",
"                                                        9 /.@   @   + C.$                                                       ",
"                                                        $ U.          8.                                                        ",
"                                                                                                                                ",
"                                                                                                                                ",
"                                                                                                                                ",
"                                                                G                                                               ",
"                                                              A V -                                                             ",
"                                                            . D v x                                                             ",
"                                                            1 n v c %                                                           ",
"                                                            * m z h .                                                           ",
"                                                              % = &                                                             ",
"                                                                                                                                ",
"                                                                                                                                ",
"                                                                                                                                ",
"                                                                                                                                ",
"                                                                                                                                ",
"                                                                                                                                ",
"                                                                                                                                ",
"                                                                                                                                ",
"                                                                                                                                ",
"                                                                                                                                "
};
