/* XPM */
static char *_5af0aad9af047fddfda1346d5488578SUajknAuAa8Y5OGS[] = {
/* columns rows colors chars-per-pixel */
"64 64 229 2 ",
"   c None",
".  c #150E07",
"X  c #1C1209",
"o  c #191207",
"O  c #22160B",
"+  c #281B0D",
"@  c #2C1E10",
"#  c #31210F",
"$  c #382714",
"%  c #2F2113",
"&  c #432D16",
"*  c #4B3419",
"=  c #543A1C",
"-  c #5E211A",
";  c #65231B",
":  c #6B251C",
">  c #72261E",
",  c #74291E",
"<  c #7B2D1F",
"1  c #5A3F22",
"2  c #7C2B22",
"3  c #782721",
"4  c #7F3020",
"5  c #5C421E",
"6  c #63451E",
"7  c #5E4222",
"8  c #644624",
"9  c #6D5125",
"0  c #775629",
"q  c #774E28",
"w  c #7F602F",
"e  c #802B1F",
"r  c #832C24",
"t  c #8D2C29",
"y  c #872B26",
"u  c #942B2C",
"i  c #9C2D2E",
"p  c #843121",
"a  c #8B3423",
"s  c #8E3426",
"d  c #913625",
"f  c #943924",
"g  c #9C3C25",
"h  c #94312A",
"j  c #9C342C",
"k  c #9C3A29",
"l  c #973829",
"z  c #942D30",
"x  c #A13E26",
"c  c #A4362D",
"v  c #A33B2B",
"b  c #AB3B2E",
"n  c #B23C2E",
"m  c #A43530",
"M  c #AB3C32",
"N  c #A93632",
"B  c #BD3C39",
"V  c #B73837",
"C  c #A02E30",
"Z  c #C73C3D",
"A  c #835C2E",
"S  c #A44126",
"D  c #AA4226",
"F  c #AB422A",
"G  c #B24527",
"H  c #B34429",
"J  c #BC442C",
"K  c #BC4A2A",
"L  c #B64828",
"P  c #B74334",
"I  c #AE4534",
"U  c #896831",
"Y  c #936C33",
"T  c #976834",
"R  c #8E6932",
"E  c #A7773B",
"W  c #B47C3E",
"Q  c #C44C2C",
"!  c #CA4E2C",
"~  c #C3472F",
"^  c #CC512D",
"/  c #D3552E",
"(  c #D8572F",
")  c #CB4C32",
"_  c #C84537",
"`  c #D5493B",
"'  c #D45531",
"]  c #DB5A33",
"[  c #D95635",
"{  c #C75139",
"}  c #E25D34",
"|  c #E85938",
" . c #ED553E",
".. c #EC643A",
"X. c #EC6B3B",
"o. c #E76337",
"O. c #F26C3D",
"+. c #F3663C",
"@. c #F4723E",
"#. c #FC713F",
"$. c #EE733E",
"%. c #D03C42",
"&. c #A87E42",
"*. c #C84543",
"=. c #D94345",
"-. c #E44B4B",
";. c #E84949",
":. c #EA5545",
">. c #F25D43",
",. c #F65649",
"<. c #EC4D51",
"1. c #F14B53",
"2. c #EC5556",
"3. c #F95B53",
"4. c #F55657",
"5. c #F44B4D",
"6. c #F86649",
"7. c #FB7443",
"8. c #F67B42",
"9. c #FA7C44",
"0. c #F97547",
"q. c #FB6659",
"w. c #FC775A",
"e. c #ED6442",
"r. c #F95D65",
"t. c #FB6364",
"y. c #FC6B6B",
"u. c #FB6967",
"i. c #FC7867",
"p. c #FB6973",
"a. c #FC7473",
"s. c #FC7D7B",
"d. c #FC7878",
"f. c #AD803E",
"g. c #A88441",
"h. c #B78542",
"j. c #BD9449",
"k. c #C78C47",
"l. c #C9974A",
"z. c #D4994C",
"x. c #DD9E50",
"c. c #FA8446",
"v. c #FA8549",
"b. c #FB8C4A",
"n. c #F98746",
"m. c #FB924E",
"M. c #FB994F",
"N. c #FD885A",
"B. c #FC9552",
"V. c #FC9C52",
"C. c #FC995B",
"Z. c #D9A854",
"A. c #D5AD55",
"S. c #E7A955",
"D. c #FCA255",
"F. c #FCAC59",
"G. c #F9AA57",
"H. c #E8B65A",
"J. c #FCB45C",
"K. c #F5BB5D",
"L. c #FBBB5E",
"P. c #F5B35C",
"I. c #FC896B",
"U. c #FC857B",
"Y. c #FC976B",
"T. c #FCBD61",
"R. c #F5BE60",
"E. c #FDB373",
"W. c #F0C25E",
"Q. c #EAC762",
"!. c #F5C261",
"~. c #FCC462",
"^. c #FCCB65",
"/. c #F7CD67",
"(. c #FCD369",
"). c #F9D469",
"_. c #F6D471",
"`. c #F8778F",
"'. c #FC8885",
"]. c #FC9687",
"[. c #FB8999",
"{. c #FC9999",
"}. c #FCA58A",
"|. c #FDBA8A",
" X c #FDA796",
".X c #FDB898",
"XX c #FC9AA3",
"oX c #FC87A2",
"OX c #FDA8A9",
"+X c #FDBBAC",
"@X c #FDB6A6",
"#X c #FDB9B3",
"$X c #FDC697",
"%X c #FDD291",
"&X c #FBF196",
"*X c #FDC4AA",
"=X c #FCD7A5",
"-X c #FDCDBC",
";X c #FDC8B5",
":X c #FDDABA",
">X c #FAFCAB",
",X c #FBF9A6",
"<X c #FDE7BB",
"1X c #FBFCBC",
"2X c #FCF8B7",
"3X c #FCEBA5",
"4X c #FEABCC",
"5X c #FDC9C6",
"6X c #FDD8C4",
"7X c #FDDAD7",
"8X c #FDE7C7",
"9X c #FDF2C4",
"0X c #FCFCC2",
"qX c #FCFCCA",
"wX c #FCF5CC",
"eX c #FDEAD5",
"rX c #FCFCD3",
"tX c #FDFDDC",
"yX c #FDF4D7",
"uX c #FDDBF8",
"iX c #FDD5E4",
"pX c #FDE7EA",
"aX c #FDFDE3",
"sX c #FDFEEC",
"dX c #FDF4E8",
"fX c #FEEBF9",
"gX c #FDFEF3",
"hX c #FEF5FC",
"jX c #FEFEFB",
/* pixels */
"                                                                                                                                ",
"                                                                                                                                ",
"                                                                                                                                ",
"                                                                                                                                ",
"                                                      . X O @ $ $ % + X o                                                       ",
"                                                + * 0 Y h.z.Z.Z.Z.Z.z.k.W U 8 $ O                                               ",
"                                          + 7 Y l.H./.(.(.^.^.~.~.^.^.^.^.~.K.S.h.0 & .                                         ",
"                                      + 9 j.Q.).(.~.J.D.m.b.n.c.8.n.b.b.B.D.J.L.!.R.z.E = X                                     ",
"                                  O 9 j.Q.(.^.J.m.8.O.o.] ^ / ! K / } ( ( X.8.v.m.G.L.R.Z.E *                                   ",
"                                * g.Q.(.~.V.v.7.] Q L x g g S a p x S d d D Q ' o.@.v.V.J.L.z.0 +                               ",
"                            o 9 A.(.~.V.8.o.' ! G d a a a f g p < f d < < p a a G ! } X.v.D.J.P.E &                             ",
"                          O U Q.).J.v.o.! G S S D x F j c m b j t x v r p p < < a f x K +.@.b.G.K.l.7                           ",
"                        % g./.(.D.7.( G g f k S x k g v m c F c u n n u k f 2 p a a < f K Q o.9.D.L.x.6                         ",
"                      + &._.(.B.O.^ D d p 2 2 a p a k ~ P m ~ H m V N m J N h k g a < f p f K | 9.V.P.x.6                       ",
"                    O Y /.^.B.O.Q g f p > : , f D b V |  .Z ` | =.-.%.*.*.N N ) P s a < : a S L ^ @.V.J.z.=                     ",
"                  . w Q.^.m...Q f p p a k h v J ~ B _ >.7.` -.:.-.3.-.2.3.%._ | _ P j < , a d p f ^ 8.V.P.k.&                   ",
"                  8 H.(.V.X.K g p 2 a h J _ _ ` -.-.<.t.N.w.t.r.t.y.;.6.0.4.y.q.-._ b j d p , , a G ] 9.D.P.E O                 ",
"                $ l.(.G.@.Q f a a a d b _ :.2.r.y.y.y.U..X X'.s.].].a.U.i.3.w.q.4.-.B Z H , ; , p d S ' c.F.S.0                 ",
"              . Y ).L.9.] F f g S x J ` ;.4.t.a.I.I.d.U.$X@X@X X@X+X X*X XU.U.i.a.t.<.2.*.y > : 2 < p x o.m.P.z.&               ",
"              * H.(.B...K I S S K ` -.,.>.,.q.w.N.C.I.I.|..X;X-X;X;X+X;X@X=X X].'.a.a.4.=.b p , ; > 2 p K @.D.P.T .             ",
"            X E /.J.7.( D S G Q } 6.:.>.7.7.6.7.B.F.E.}.;X@X;X8X5X7X7X6X-X:X;X*X{.'.s.4.2.=.h > : 3 2 p g ( v.P.x.=             ",
"            * H.~.b.] G S D { ` | +.9.6.6.9.0.N.}.@X-XeXdX7X7XdX8X7X7XiXiX7X8X:XOX{.u.d.a.=.i r 3 > 3 r a L 7.D.K.T .           ",
"            Y (.F.7.Q d p d [ e.o.e.7.9.9.C.|.*X5XpXpXdXgXsXgXjXjXjXfXpXdXgXsX8X*XXX{.].y.=.Z u 3 < a d a x } v.L.l.$           ",
"          @ l.(.B...F p p k M [ 7.9.#.7.B.|.8XtXdXtX9X0XrXtXaXjXjXjXjXjXjXgXhXpX-X#X@Xd.p.r.;.V j x d p p d Q @.D.P.q           ",
"          = H.J.9.' f p d j i n ..7.9.B.Y.;XyXrXqX2X,X,X1XrXsXgXgXgXjXjXjXjXjXjXiX-XOX'.d.p.1.=.V h r y r 4 g o.B.J.E X         ",
"          U !.D...L g g c b H J ( 7.D.T.$X=X2X1X>X>X2X0XtXgXgXsXtXsXsXgXjXjXjXhXuX5X#X[.d.`.r.=.V u y 3 r < d ' v.L.z.$         ",
"        O j.~.m.] f p k M I { ) _ ..C.E.=X=X,X>X1XrXaXgXaXtXaXsXaXjXsXtXgXjXjXfXfXpX#X[.`.`.r.-.%.C t s l a S ^ 8.J.S.5         ",
"        $ S.L.c./ f a d k I [ ....7.w.].$X<X>X,XqXjXjXgXrX0XrXsXgXjXjXgXgXsXgXhXjXuX4XXX].[.`.1.=._ I b v f g K O.D.K.0         ",
"        5 !.L.9./ g a y 2 2 c ) $.N.Y.]. X=X>X1XtXgXgXsXgXaXaXgXgXgXgXjXgXtXsXjXhXuXiX5X@XXX`.r.1.` N h h p p S o.V.R.T .       ",
"        9 !.F.@.^ S f a 2 s b J ..w.Y..X+X%X,X1XsXgXaXtXgXjXgXgXjXgXaXtXaXrXaXjXhXfXuX5X{.`.`.4.=.N t h t 3 p g / b.K.h.X       ",
"        A !.V.+.G a p p a b b _ >.w.d.'. X_.,X1XtXrX0XqXtXgXjXjXjXjXsX1XrXsXaXgXhXfXuX5X+XOX[.u.2.` M c x a p d ^ n.~.k.+       ",
"        R !.V...D p , ; 3 j N ) ,.q.s.].].%X2XqXrX1X>X,XqXgXjXjXjXjXgXrXtXgXsXgXhXfXhXeX:X#X[.a.y.6.( ' G p p f ( n.!.l.@       ",
"        Y !.V...S p < ; : y C _ >.u.s.].}.&X0X9X9X0X>X>XrXgXjXjXjXjXjXgXgXjXgXjXjXhXpX6X@XXX`.t.t.>.) P v f g D | c.J.l.@       ",
"        Y K.V...S < , ; : t N ) +.i.d.U.}.3X1X9X6X2X>XqXtXgXjXjXjXjXjXjXgXgXgXjXjXjXyXeX6X+X'.r.4.[ ' _ l a a g / c.L.l.@       ",
"        A K.V...S 2 > - > k F ) 6.y.a.s..X9X0X<X8XqX0XtXaXsXgXjXjXjXgXsXsXaXgXjXjXaXtXyX;XOX].d.w.| | ] g p p f ^ n.L.k.+       ",
"        0 P.D.O.S r , ; 2 k v _ 3.i.i.s. X<X1X1XaXtXqXaXsXtXqXsXjXgXaXqXtXrXsXgXdXwXyX6X@X'.a.a.q._ V c p p p f ( n.K.h.X       ",
"        8 P.F.@.G a < , 2 p h B 1.q.w.a.].<X1X1XaXaXsXgXrXrXqXtXjXjXsXqXaXsXsXsXwXeX8X@XOX'.r.4.;.J B j r 4 , a ( m.K.E .       ",
"        * S.J.9.Q a , ; 3 s k _ 3.u.w.y.'.-X2X1XtXsXgXaXqXqX1XrXjXjXjXaXsXgXsXaXtXwX-X#XXXa.t.3.| _ V s < < p g | V.R.A         ",
"        @ z.L.b.' f < , , < r b :.3.6.y.U.+X<X1XtXsXgXgXqX>X2XrXgXjXjXgXgXgXsXwX<X8X*XOX[.a.y.>.` Z m 2 3 3 p L O.F.H.8         ",
"        X E T.D.o.S p < > < r u ;.,.6.a.I. X6X9XrXgXjXgXaXqX0XqXsXgXjXjXsXaX0X2X8X:X-XoXp.y.3. . .B a 2 3 3 y Q 8.T.Z.&         ",
"          0 P.F.@.L a , ; 3 2 y ` +.6.y.a.'.;X9XrXgXaXdXgXsXrXrXgXjXgXgXaXrXqX8X6X6XOX'.a.q.:.;.-.H p 2 , , d ' m.~.h.O         ",
"          & x.J.v.( f > - ; > 2 ~ ..:.4.i.U.+X8XqXaXwXwXdXgXeXqXaXjXjXgXgXsXaX8XOXOX'.U.i.6.,.<.Z k l t 2 p D ..D.!.A           ",
"          O W T.B...G p ; ; < p k P _ ,.q.U.{.:XqXwX8X:X8XeX5X8XtXsXaXrXtXaXrX9X X].'.u.3.5.<._ N c j a p d ^ 9.T.Z.*           ",
"            q P.J.c.^ d > ; > ; > v B  .3.u.}.*X:X8X5X;X-X5X-X6XeXaXqX0XwXrX8X:X=XU.d.q.4.;.V j m t 2 > p D } M.^.E o           ",
"            # k.L.B...D < ; : : , d M ` >.q.I.]. X@XOX+X#X#X+X#X5XeX:X:X<X9X-X XE.Y.y.4.1.Z i i C e > , a Q 8.J.H.5             ",
"              q S.J.9.' g > > , : > d ~ '  .q.a.'.d.'.XXOX@X+XXXOX;X*X;X$X$X XU.i.C.i.1.=.` N i y , : r D ..V.^.f.X             ",
"              @ h.L.D.@.! a < < ; ; a v J | >.q.i.t.a.'.[.XXOX[.[.{. X*X$X|.].a.t.i.N.<.B _ n t 3 ; 2 g ' c.T.H.=               ",
"                8 S.J.m.X.L a , ; ; > k J ) } +.6.5.r.y.p.d.s.p.p.s.s.{. X].U.t.4.4.0.6.n u d p p p f Q @.F./.Y .               ",
"                X R P.J.b.o.D p < > : a g v ! | ` =.4.1.1.y.u.4.5.4.1.w.w.w.u.-.Z =.[ ] v : > < a k Q X.V.^.j.#                 ",
"                  # W L.F.c.] x p < 2 : < g G ! J B =.=.=.2.2.-.5.1.%.:.7.e.+._ V b F x g p > p S [ O.m.~.Z.1                   ",
"                    = k.P.F.c.] D g p > 4 f g d c m P B V *.B B Z Z V *.e._ ~ H k p a f d g a g ~ O.V.^.H.9                     ",
"                      = k.L.F.v.} K g a d , < , 2 y c n M M i j m i u z ) I h k d a d S g v v ! ..m.^.Q.U o                     ",
"                        5 l.L.J.b.X.^ G S < , > > 3 t j v m i i h u y y v M h v j h k D D K ( O.B.~.Q.U O                       ",
"                          = k.K.L.D.8.] L g p , , < 3 2 p s y t h h r 2 a d p f k a g K ( ..9.G.(.H.0 .                         ",
"                            & E H.~.J.b.X.] G g a < , , p p , 2 p p 2 , < p 2 a D G Q | 9.V.~.).A.7                             ",
"                              + A z.K.~.G.b.X.] K x f d a p < p a a p p a g k G ( O.7.b.K.).Q.g.$                               ",
"                                . * E S.!.~.F.m.8...] ' Q L D S G D G L K ' } X.c.D.T.^.Q.l.9 O                                 ",
"                                    X 7 E Z.!.~.L.G.V.b.c.@.X.X.$.X.X.$.8.b.V.J.^.).Q.z.0 #                                     ",
"                                        O = T k.H.!.^.^.~.L.L.J.L.J.L.~.^.(.(.Q.A.g.9 #                                         ",
"                                            . # = A E l.Z.H.K.!.!.K.K.H.z.g.Y 8 $ X                                             ",
"                                                    X @ $ * 7 8 8 1 = & # O                                                     ",
"                                                                                                                                ",
"                                                                                                                                ",
"                                                                                                                                "
};
