/* XPM */
static char *_ac0f0a47dce41388ac82182dca674a2aAL3Iba0tQrmpAd2[] = {
/* columns rows colors chars-per-pixel */
"64 64 122 2 ",
"   c black",
".  c #05060C",
"X  c gray4",
"o  c #0B0D15",
"O  c #0C0F19",
"+  c #0E111B",
"@  c #151515",
"#  c #11121B",
"$  c #1E1E1E",
"%  c #0F1420",
"&  c #111624",
"*  c #121926",
"=  c #151B2B",
"-  c #191E2E",
";  c #141E34",
":  c #1A1F31",
">  c #15212D",
",  c #1A222F",
"<  c #162136",
"1  c #1C2334",
"2  c #1F2A31",
"3  c #17243B",
"4  c #1D263B",
"5  c #1D2A3D",
"6  c #252629",
"7  c #212536",
"8  c #222B34",
"9  c #21273C",
"0  c #222A3E",
"q  c #282C3F",
"w  c #243033",
"e  c #283333",
"r  c #25333C",
"t  c #29333C",
"y  c #283A3C",
"u  c #1E2B41",
"i  c #222740",
"p  c #252D43",
"a  c #292E45",
"s  c #262F48",
"d  c #2A2E49",
"f  c #253146",
"g  c #293146",
"h  c #2C3843",
"j  c #25344B",
"k  c #2B334B",
"l  c #2B344B",
"z  c #2C3449",
"x  c #2D364B",
"c  c #28314D",
"v  c #29334C",
"b  c #2B334C",
"n  c #2B344E",
"m  c #2E344D",
"M  c #26384D",
"N  c #2B394E",
"B  c #2F384F",
"V  c #303347",
"C  c #313C47",
"Z  c #31364D",
"A  c #32364C",
"S  c #30394F",
"D  c #32394E",
"F  c #383F48",
"G  c #2E3650",
"H  c #2E3651",
"J  c #2F3753",
"K  c #273851",
"L  c #2F3852",
"P  c #2D3B53",
"I  c #2F3955",
"U  c #2F3958",
"Y  c #2E3E58",
"T  c #313650",
"R  c #303750",
"E  c #313853",
"W  c #323A53",
"Q  c #323955",
"!  c #333B55",
"~  c #323B57",
"^  c #343B55",
"/  c #383B51",
"(  c #3A3D54",
")  c #3B3F55",
"_  c #303A59",
"`  c #353D58",
"'  c #363D59",
"]  c #343C5A",
"[  c #383D5B",
"{  c #383E60",
"}  c #2F4057",
"|  c #2F4159",
" . c #304057",
".. c #394354",
"X. c #33415B",
"o. c #37415E",
"O. c #384058",
"+. c #3D425A",
"@. c #39415D",
"#. c #3A425D",
"$. c #344362",
"%. c #3B4462",
"&. c #3E4661",
"*. c #344861",
"=. c #3B4964",
"-. c #3C4768",
";. c #354968",
":. c #3D4D6A",
">. c #3F5365",
",. c #3F506C",
"<. c #474F5E",
"1. c #404761",
"2. c #404763",
"3. c #434B65",
"4. c #494A62",
"5. c #424C6B",
"6. c #42526D",
"7. c #4A5069",
"8. c #59586F",
"9. c #434D71",
"0. c #455071",
"q. c #4B5976",
/* pixels */
"@ X                                                                                                                             ",
"$ t z ` E G L n m E ! I G ! U _ p b b s p p b G G b p 9 ( ^ G b g g f p : i 9 9 0 p p p a p p p 0 = / O.` ` ! G _ _ ! G m E E   ",
"6 &.0 p p p p p p g g g n n m n n p 0 p p d p g g p p z ! b l g p p p p 9 m d g g g g R R R m m n : +.` g g p p p p g p p p p   ",
"# 1.p p p g g g g g g a g b n b g p p p p g g l m g p V m m m n g p p p 0 m d d g g g m m m m m b 1 [ p g g p p p p p p p p p   ",
"# @.p p g g k g a p p g d g g g p p f g g z l g m z g k n g g g g g f f p E g g g g b b n b g g g 1 ^ f g z f p p p d p p p g   ",
"# @.p p m m B L R m p p g f f g a g g g g g g a g m p Z n g g g f g f f i ! g g g g b b b g g g p = ! g g g f p f f p p p p g   ",
"# @.p p g R E S m z g p g p p a g g g i 0 0 0 p 0 a 9 E G g m m g p p g 0 ^ g g g b b b b l m m 0 : ` g g g p p f g p p p f g   ",
"# o.p p a z S S Z Z m p i p p p g g p g n b g b p g : Z G p p p p p p g 9 ` m z g b b b n m B Z p : ! f p p p f g p g p p f g   ",
"# @.p p p g m E S Z Z g p 0 p a a p g n b m m m b g 4 g n g p 0 p p p g 9 ` m z g b g g m E Z g p : ! p p p p f p g m g p p g   ",
"+ ! p p g z m S Z Z S m a 9 i g z i n b n m m b g p p k g g k p 4 p p g 0 ^ k k g b g g m m m 7 f : ^ p p p g p p g k z p p g   ",
"+ ^ p p g m m m L R Z Z g p 0 9 p 9 n m m m m g f p p Z m g z g p 0 p b q ( z z b n m m Z S Z 8 f 1 F f p p g g g g k z f p f   ",
"# %.p p p m m m m m k k g p p p p 9 0 G E B m g p f m S L k m m g 4 p d 9 Z f p g m L S Z S m 8 r 0 C g p g k z z k k g p p p   ",
"+ =.g p p g b g g a p a a p p p p p 0 0 L E L l p g m ..` m m E g p 4 4 - 0 1 p s L L E m m p 0 f g C G l m Z Z z Z m k p p g   ",
"+ -.g p p p p p p p p p p p p p g g f i i m E L l g g t g p 9 0 9 1 9 4 , p 9 - 1 9 0 p 0 4 1 7 0 t h z f 0 0 0 0 0 4 9 1 1 4   ",
"+ -.g g f p p p p p 0 0 p g g g z g g p 4 m E ! E m l t +.3.@.@.! ! ` @.O.@.%.@.E ^ @.&.` B 6.@.=.=.,.>.6.,.6.:.X.$.M Y @.*.=.  ",
"+ -.m z l g g g g p p p g z z g g p p p 0 b ! ! E m t h %.L n n p p p p g m m m p 9 i g b z =.f M K Y | |  .X.X.K M 3 j f M M   ",
"+ o.m L m m B m k g p g m E m g p p p p 0 E ! ! E B t z ` n b g p p p p p g z z k w 8 0 9 0  .j M K Y Y | |  . .Y j 4 p j M M   ",
"+ ` b m z z S S z z k m Z E m p p p 0 4 k Z R E ! L l C ` n g p p p p p p p a m k h g f 0 0 X.j M N L Y  . . . .L j p u j j M   ",
"+ ` k g p p g m m m m Z Z m g p p 4 4 g k z Z Z m m n C ! g p p p p p p p p p g z h g k p f X.j j M K Y Y  . .` M j j 3 j b j   ",
"+ o.m m z g p p p g g k z m b f 0 9 g g k Z Z z z g g z ` g p p p f p p p p p a k k m m b p Y j j M K Y Y |  .Y j j f p u j j   ",
"+ ` m m m m p p p p p p p g g p 4 g d g z z z z m m b a ` g p p g d p p f p g z k m Z Z g p K j j K L Y Y Y  .Y M j M j 5 j u   ",
"# o.m m m m p p p p p p p p p 4 g p a g k z z z z m b a G p p g g g g p p g g l k k m z p p K j M K Y Y Y Y Y Y M M M j 5 p u   ",
"+ -.m g z g p p p g b g p p f 1 b g f a g g g g z Z k p s p p g E E g g f k z l g g g p p f Y M M M L }  .Y Y Y K j j j u u f   ",
"+ -.m g p p p p f g m m z g p 1 p g g g g g g g z Z g a g p g k E E G z z Z m l f g p p p p | M M M I  .Y Y Y Y K j j j p p M   ",
"+ %.m g p p p g g m S E B m m 4 p p p g a z z z Z Z z g g p g g E E E m m z z l p m f p 1 f | M M M Y Y Y Y Y L M j j j u j B   ",
"+ ` g g i p p g Z m S Z m m m 0 p 0 p p a z z z z z g t g p p g m E E Z m b b p g m g f 9 g Y M M Y Y Y Y Y L K j j j p u N L   ",
"+ $.G n b g g p p G ! ! L L ! 4 p p g g g p g z k g 0 t g p p p p g E G m b k p G m n g p f Y M j Y Y L M j j j j j j p j K L   ",
". 1 9 7 1 1 1 1 7 7 9 9 9 1 1 * - 1 7 1 1 1 7 1 8 8 8 8 8 8 1 4 1 : 9 = 1 4 1 4 9 1 3 1 * f I b j M f j j j j f j j u j N B L   ",
"# 8.5.@.o.@.O.%.1.3.&.-.5.5.5.p O.@.&.%.=.=.%.o.! ! ! ! %.$.` ` I G $.p G $.$.X.` U K M r j K f j j r j j j j f j u j M L S L   ",
"# 3.g p p p p p f g b m G G m 0 0 m z z l n p p 0 p p p p p s g p g b p G b p f g p 3 3 1 p M j j j f j j j j j p j N N L N L   ",
"# 1.g p p p p p f g b m G G g p 0 g m m z g f p p p 4 0 g g g p p m m d L G f p p 5 3 3 , 5 j 5 f j j j f u u j j N K N N N N   ",
"# +.g p p p f d g g b g g g p p 0 p g g g g f p p p 4 k z k g p p g m a n n f u 4 4 3 5 , f M u 5 j j p u j M N N N N N N M M   ",
"# O.f p p p p p f f n n n g p p p p p p p p p p p f g z k a p 0 g m m p p f p u u 4 4 3 > M L j 5 j j 4 M N N L K j j N N j j   ",
"+ O.p p p p p p f p f g g g g g g p p p p p p p g z k z d p g 0 z m m p f u u 5 4 4 3 4 4 M | M u 5 5 p K L L L K N l M N N M   ",
"o @.p p p g a p p p d g g g g g g f p f p p p f k z z z g p 4 g m Z G p g u 4 4 4 4 ; 3 u f Y N j p u M K K N N N M j f j N M   ",
"+ @.p p g k k p p p p p g f g g g g g g p p p p g k z m z g 4 g k G G p s u 4 3 3 < 4 u < r Y N N n N N K N M M M M j p p j f   ",
"# ` p p g z k k k g p p p f g g l z g g p p p f p p f g k z g 9 f G m p : 1 1 1 : - 1 2 8 8 8 8 0 - 9 9 4 9 1 1 1 1 1 , = = -   ",
"# ! a i p k z z k p p p p p g g g z g f 0 p f p p p p p p z z p 4 g g 0 Z 3.@.@.@.@.@.o.o.o.n ` @.4 4.5.` -.%.%.%.&.%.%.%.%.O.  ",
"# o.g p p g z m k p p p p p p p p p p p 0 p g f p p p p p g z g p 8 2 1 V ^ f g f p p p 0 9 i g g : ( p p g f f g g g g g f p   ",
"O @.l p p g m m g p p p p p p p p p p p p d a f g p p p p g g g n t e 1 g ^ g g a a i p m z k z k - 3.p 1 0 p f g z m z g g g   ",
"O o.z p p g m b p p p p g g p p g f f g g g p p p p p p p g g g B m t i z ^ g g p p p m m Z Z Z m - -.p p 9 1 p f m m m z l g   ",
"O %.Z g 0 g g g p p g p p g g g g p g g g g f g f p p p p g g g S E h p z ` g p p p p p m Z Z Z m - 3.p p p p 1 4 g g z m m l   ",
"O &.Z g p p p p p g f p p f g k z p p g z t t 8 p p p f f g g m Z E C s z @.g g p p p p p R S Z m 1 3.p p p p p p 1 9 g b m z   ",
"O %.Z k p p p 0 g g f f p g g z E g p g S E E n g g g g g g k Z Z / E b m %.S b g p p p p 0 g m G 1 5.p p p p p p p p 1 9 g g   ",
"+ @.Z m p p p p g g g g g z z m S z 0 p E S S z g g g g g g z Z S Z E g m =.m m g p p p p p p 0 g 1 5.g g g g g g p p f 0 7 t   ",
"+ ` Z m p p p p g g g g g z m Z S g 0 p L S Z m m g b m b l z Z Z Z E p m ` m m g g p p p p p p p = 5.L b b b n z g g f 0 4 8   ",
"+ ! m k p 0 p g g g g g l Z S S S g 0 p m Z Z Z R b R L B B m m Z / E i ! ! m b g g p p p p p p g : 5.G n m m m S E E g p p 1   ",
"+ ! g f p 4 g g g b m m z m m m m p 4 p g k k k g m E E B m m m Z Z m i ^ I b g g g p p p f g g b 1 -.b m m m E S E E m p p 9   ",
"+ ! g p 4 i g g g m m m m m m m b f 4 s g g g g g z B L B m m m S E G 4 E G g f g f p p p f g g n 1 9.g R G m m Z E E G g p 4   ",
". 1 : - & - 1 1 4 9 : - 1 1 1 1 - = * % + & * = , - - 4 4 1 1 1 4 9 1 & E n p p p p p p p p g g G 4 9.m m m m m Z E E m g p 4   ",
"o { ` ` %.%.%.[ %.%.%.[ _ _ _ _ _ U s G ` _ 1 <.3...@.=.=.5.5.:.,.:.;.M ! g p p p p p p f p p f n 1 0.m G m m G S E S m g i 4   ",
"o ! d d d g b d i G G b d d d p p 9 4 d b b 1 q.M y r r j j j j M K j 1 E f p p p p p p p p p p g - 5.m G L E E S S Z m g p 4   ",
"# G a k d d b m b d G G G d d p p 9 9 d k G 9 :.j t f l l f f j M j j 2 E g g g g g g f g l g p g : 5.g n L E E B m Z m g p 0   ",
"# G a a a a d b G d b G G b d a a p i d b m 9 ,.M h l n n n f j j j j 4 ^ n g m k z m b m m z g g : 5.f n G G L m S S m g p p   ",
"# ! a a p p a d b b d b b d a a a p p d b G 9 6.M l j M M N M j j j j u E I m m m m g f n z z z m : -.f g G E E E S Z g p p p   ",
"# ` a a p i i a d d d d d d a p p a d k b G 1 :.j l j j M N N M j j M j E ! z z k g p p g g m m m : -.p g G E ^ E m m f p p p   ",
"# ` a a p p i p d d a a a p p p d g k b b d 1 =.f l M j M M M y f j j p S ! g g p p p p p g g z m : -.p g m S S S Z m p p p p   ",
"O ` d a p p i i p p i i p p i p d b b b d d 1 *.j N N M M M M r f j M f S G g p 5 p g f f p f p g - &.p g m m m m k g p p p p   ",
"O ` k a a a p p i p a a d d p p d d d p i p 1 *.j L L M M j h f j l N f t 0 1 1 1 1 p 0 1 1 = * - * 3.g g k g g g g p p p p p   ",
"O [ d d a a p p p d b Z Z Z d i p p i i i p 4 $.n L L N M j r j f N N f F 7.@.L =.@.&.&.-.5.-.&.@.- 5.g p p p p p p 0 p p f b   ",
"O _ b d a p p p p d R R V V d p i p i p p p 1 $.N L K M j j j j N L N f ..! ` p a z m E E m m g n 1 -.p p p p p p 0 0 p p g m   ",
"O _ d d p a a a p p d d i a d s p p p s d d 4 *.M K M j j j f j N K M 5 O.G s p p g z m B B m m g : =.p p p p p p p p p p d g   ",
"o G i 9 9 i i 0 i 9 9 9 9 9 i 9 9 p p i i 9 : N 8 8 5 5 u 5 5 5 j j 5 * B g 0 9 4 1 9 p p p p 0 0 = I 4 0 0 0 0 0 0 0 9 4 0 p   ",
"                                                                                                                                "
};
