/* XPM */
static char *_418957c30fc4755bf46c0aa639643faYz6ckhjjxNIRrFcH[] = {
/* columns rows colors chars-per-pixel */
"64 64 233 2 ",
"   c None",
".  c #050101",
"X  c #0B0404",
"o  c #0C0906",
"O  c #0B0708",
"+  c #0D0B0A",
"@  c #130303",
"#  c #1B0304",
"$  c #140906",
"%  c #1C0509",
"&  c #130C0B",
"*  c #1B0C0C",
"=  c #160609",
"-  c #14110D",
";  c #1A140E",
":  c #160F10",
">  c #161312",
",  c #1B1514",
"<  c #1C1816",
"1  c #1E1B1A",
"2  c #1A1818",
"3  c #230306",
"4  c #24050A",
"5  c #2B040B",
"6  c #230A0C",
"7  c #2C0A0D",
"8  c #2F0307",
"9  c #35050B",
"0  c #3E030C",
"q  c #340A0D",
"w  c #390B0D",
"e  c #3A0107",
"r  c #28120F",
"t  c #240E11",
"y  c #2D0D12",
"u  c #340A12",
"i  c #3B0C14",
"p  c #380B17",
"a  c #231212",
"s  c #221A16",
"d  c #221C1B",
"f  c #2B1C1C",
"g  c #2A1617",
"h  c #331315",
"j  c #3D1214",
"k  c #3C1519",
"l  c #321C1A",
"z  c #3B1C1C",
"x  c #341618",
"c  c #23211E",
"v  c #29231F",
"b  c #32201E",
"n  c #271F21",
"m  c #3A1C21",
"M  c #252322",
"N  c #2B2524",
"B  c #2C2927",
"V  c #2D2B2A",
"C  c #242925",
"Z  c #342423",
"A  c #3B2525",
"S  c #332D2C",
"D  c #3A2D2C",
"F  c #372927",
"G  c #35322D",
"H  c #3B302E",
"J  c #353333",
"K  c #3B3534",
"L  c #3C3937",
"P  c #3C3B3A",
"I  c #373839",
"U  c #382F30",
"Y  c #44040D",
"T  c #48060E",
"R  c #440C14",
"E  c #4B0B14",
"W  c #430E1A",
"Q  c #490B15",
"!  c #550C15",
"~  c #44141B",
"^  c #4B141C",
"/  c #49171A",
"(  c #5C151B",
")  c #55151B",
"_  c #63181C",
"`  c #451C22",
"'  c #4D1C23",
"]  c #4B1420",
"[  c #551C21",
"{  c #432525",
"}  c #452D2B",
"|  c #4D2C2E",
" . c #4A2326",
".. c #552B2D",
"X. c #56232A",
"o. c #453332",
"O. c #4D3533",
"+. c #433B35",
"@. c #423D3C",
"#. c #4B3B37",
"$. c #553333",
"%. c #5C3435",
"&. c #533C3B",
"*. c #5D3A3A",
"=. c #4D2C30",
"-. c #692D33",
";. c #613C3E",
":. c #64343B",
">. c #7C373C",
",. c #42403D",
"<. c #4A443D",
"1. c #55433D",
"2. c #6A413E",
"3. c #4A3F41",
"4. c #683E43",
"5. c #763941",
"6. c #454342",
"7. c #4A4444",
"8. c #4B4947",
"9. c #4E4B4B",
"0. c #534545",
"q. c #544944",
"w. c #524D4C",
"e. c #5B4E4D",
"r. c #5A4944",
"t. c #55514D",
"y. c #555251",
"u. c #5B5554",
"i. c #5D5A5A",
"p. c #5E5957",
"a. c #644545",
"s. c #634C4C",
"d. c #6A4746",
"f. c #734B4B",
"g. c #63534D",
"h. c #6B544C",
"j. c #74544E",
"k. c #78504E",
"l. c #625253",
"z. c #6B5353",
"x. c #645B55",
"c. c #6C5A53",
"v. c #645C5B",
"b. c #6A5D5C",
"n. c #625658",
"m. c #785856",
"M. c #714E52",
"N. c #64625F",
"B. c #6B625D",
"V. c #73635E",
"C. c #646362",
"Z. c #6B6463",
"A. c #6C6967",
"S. c #6D6B6B",
"D. c #696867",
"F. c #726363",
"G. c #746A65",
"H. c #736D6C",
"J. c #796E6B",
"K. c #7A6965",
"L. c #72716E",
"P. c #7C716C",
"I. c #787266",
"U. c #757372",
"Y. c #7C7574",
"T. c #7B7877",
"R. c #7C7A7A",
"E. c #797379",
"W. c #8F4449",
"Q. c #8D5E62",
"!. c #8D6B6B",
"~. c #94696C",
"^. c #847573",
"/. c #837975",
"(. c #837C7B",
"). c #8A7E7C",
"_. c #897674",
"`. c #947975",
"'. c #8D716C",
"]. c #AE7B7C",
"[. c #B57577",
"{. c #8D847E",
"}. c #94827E",
"|. c #B67F82",
" X c #868282",
".X c #8B8584",
"XX c #8C8A86",
"oX c #8E8989",
"OX c #928684",
"+X c #948984",
"@X c #9B8C87",
"#X c #948C8A",
"$X c #998E8B",
"%X c #998782",
"&X c #9B918D",
"*X c #92918D",
"=X c #949191",
"-X c #9B9492",
";X c #9D9994",
":X c #9E9B9A",
">X c #949994",
",X c #A98785",
"<X c #B78686",
"1X c #A1958E",
"2X c #A29593",
"3X c #A29D9C",
"4X c #A89A96",
"5X c #B99194",
"6X c #A5A19E",
"7X c #ACA19D",
"8X c #B1A39D",
"9X c #A5A3A3",
"0X c #ADA6A5",
"qX c #ACABA9",
"wX c #B2A3A1",
"eX c #B5ABA3",
"rX c #B2ACAB",
"tX c #BBACA9",
"yX c #BCA8A3",
"uX c #BDB1AD",
"iX c #B0B0AE",
"pX c #BAB3B2",
"aX c #B4B3B1",
"sX c #C29496",
"dX c #C0B5AE",
"fX c #C4B7B3",
"gX c #C2BDBB",
"hX c #C6BAB4",
"jX c #DBAAB0",
"kX c #E4BCBC",
"lX c #C9C4C3",
"zX c #D3D2CF",
"xX c #E6E2E1",
/* pixels */
"                                                                                                                                ",
"                                                                                                                                ",
"                                                                                                                                ",
"                                                            9.          P                                                       ",
"                                                    T.H.    M T.        < U.                                                    ",
"                                                    S < N.C.y.9.A.XX(.Z.@.S D.                                                  ",
"                                                    Y.@.w.L (.(.w.v S @..XA.K H.                                                ",
"                                I                 9.w.Z./.#X.XG..X&X-X.XH./.(.9.> 6.          C.                                ",
"                              1 C               w.t.Y.OXOX#X$X.X$XOX&X#X).OX/.Z.K L           P                                 ",
"                            8.I               C.L H.OX#X$X#X#X$X#X&X#X&X$X&X.X).v.7.(.        U.J S.                            ",
"                          9.+ P               d u.#X&XOX-X&X@X&XOX&XOXOX&X#X#X&X/.7.M           S.> S.                          ",
"                        V V P 9.            -Xd v.(.$X#X+X$X$X$X-X+X(.K.OX&X$XOX).7., N           c >                           ",
"                        P > R.        S.M S K y.OX&X-XY.J.+X&X+XOX#X&X^.J.@X@X&XOX/.u.y.y.        B P                           ",
"                      y.i.C             T.d u.N.#X0X2XP.{.tXwX@X&X$X+X).K.uX2X+X#X).x.G           B P y.U.                      ",
"                      J 6.y.              N.y.N.#XrX$X/.1XeXeX1X4X7X2X+XK.fXwX2X#XP.n.<           R.P J 9.                      ",
"                      i.M                   N Z.OX$XJ.$XhXuXeX&XuXfX8XOX^.dXdXwX/.v.u.S             9.9.U.J                     ",
"                  S.S R.N                   M Z.OX$XP.+XhXdXeX1XtXtXwX$X/.tXpX3X/.n.b.N             7.9.H.S                     ",
"                  v.J (.1                   B C.G.OX^.$XfXeX$XG.tX4X1X+XG.3X3X).Z.b.u.N             8.6.H.K                     ",
"                  u.v. XM                   B C.b.OXF.P.;X;X#XV.@X4X&X{.P.#XJ.G.C.u.7.9X            9.6.U.i..X                  ",
"                  i.#XH.N                 L.> 6.b.).F.e.Z.{.(.B.&X+X/.P.P.OXJ.b.n.n.n  X            9.L D.(.N                   ",
"                :XH.rXH.B                 N.,., B.).l.l.x.b.}.V.+X+XP.B.P._.K.n.C.v.> y.            8.N w.(.L                   ",
"                3XH.rXH.d                   gX, B.b.A * # A _.c.{.I.g.c.g.6 a o.u.p.J               7.B 9.T.7.                  ",
"                :XU.rXH.d                   fXa K.D s.$.q j $.c.V.c.h.a.x h m.a.o.v.w.              9.V y.(.J                   ",
"                ;XR.0Xw.<                 P.l.m F.K.yX~.[ X.~.`.m.`.`.!.` ..5X,Xz.b.7.D.            9.c w.(.@.                  ",
"                3X X0X7.<                 n.% A z.m.kX].-.>.].<X~.,X<X].-.:.jX5Xz.&.N c             6.N y.(.P                   ",
"                -X#XlX@.<                   6 y z 7 sXQ.( W.[.<X<X].|.].5.5.<X~.4 a & N             w.B 7..XP                   ",
"                9XoXgX@.2                   t t x / X.) ( ( _ ( ) [ ) ) ^ Y ^ j h t s               6.V y. XK                   ",
"                3X#XgX@.1           E.      2X6 3 / R ^ ) T ( ! ! Y E E E R i u 4 @ * u.   X        9.d w. X7.                  ",
"                -X#XlX8.V U.        2 (.    N.= 7 8 R R e E ! ! ( E E Q 0 9 i u 4 @ @ $ b.J         9.C 9..X7.                  ",
"                6X#XgX6.,.B         > K :X*Xc X # q 9 9 9 Y Y ! T ! Y Y i i 7 h 4 * t $ S 1         7.V w.(.7.                  ",
"                3X#XlX@.6.M         N (.,.P t.* g 7 5 u i / R R Y 0 Y R 8 7 7 6 6 a A $ y.S         6.V w.(.y.                  ",
"                :X.XzXv.@.M         c 3XoXw.<.l.z.&.4 5 u 9 ] ^ ^ ^ ~ w q h 3 A l.o.f $ b.L qX    L N 9.D..X7.                  ",
"                9X XzX-X7.N         N qXuX/.#.&.m.{ x { $.%.' w w w w / ..| o.K G c s & b.D rX    K V w.S. Xu.                  ",
"                  D.S.aXy.1         < I.eX8X_.O.} r l } | $.4.f.d.d.d.2.f.a.r.+.c c > S Z.D pX    n K C.H.y.                    ",
"                  C.9.zX9.K H.      c w.{.8X@Xr.o.; # l O.a.j.j.j.j.m.k.m.;.O.Z * N N n.n.S iX  .XU K H.T.L                     ",
"                  =XS.:XZ.u.S 6.    +.B.P.2X8X).H $ @ g #.s.z.j.j.j.j.f.f.*.} t X N 3.b.K M >XqX> K b.R.T.S                     ",
"                      V pXA.@.S G   6XeXx.1.P./.- X $ a f A } O.h.j.d.%. .{ h @ X a K @.S 1 C 2 K 3.R.oXT.y.                    ",
"                      V   T.7.G - G G.eX1X1XG.; . . X $ a b A } 1.*...%.k q 6 6 @ . $ < u.y.c 2 P 8.(.u.6.                      ",
"                      B   6XZ.@.- ; G.@XdXdXx.<.$ $ $ @ = a a r z j j ..k 7 l A s & N @.H.u.d N K @..Xw.L                       ",
"                      R..X:X.XB < B G.P.@X4XB.+.$ $ t t h z r 3 8 w j ~ k { &.o.f X N e.Z.0.S F @.u.Z.D.U.                      ",
"                        L  X=XS ; /.+Xg.1.q.F $ $ % 4 m a.a.x 7 q 9 u `  .m.M.{ % @ = D s 0.l.Z d oXB #X                        ",
"                        J v.Y.S s +X8X4X}.1.* X = % 5 p ` :.;.d.a.` %.!.Q.M.| 5 4 # # * 0.^.v.n : v.< XX                        ",
"                        L w.H.K ; x.@XfX%Xq.s & a t u i W '  .| O.z._.!.=.k i p p # # @ S H S S & i.9.L.:X                      ",
"                        P L v.7.& +.^.}.`.g.D X = g p W W ~ ` M.s.^.^.s.| ..^ ' i u 6 = d N d d c p.XX8.P                       ",
"                        L S 9.@.o +.r.&.g.r.s X & x p W ] ' ;._.)./.q.Z =.4.X.] ~ ` # X N 7.S & d S U.9.P                       ",
"                      6.V w.u.d Z b.}._.D @ & . o % 3 u i / z l ; < - X 4 ` ] W i p 4 @ X - P 6.L xXD.1 P                       ",
"                      1 P S H.  rXe.2X0.Z Z d . X % 4 p ~ k 7 @ o . . o = 7 j ' i # # @ . d w.9.J   7.< P                       ",
"                      > C y.      2Xe.a D 0.S X & a # 7 m h @ @ . . X X = @ 4 k y @ @ & X 1 S w.;X  rX8.P                       ",
"                      > 7.          y.> K u.S X 1 , & * f * & . . . X X & X = ; a X X & o J 9.R.      9XS.                      ",
"                      P               6.N K S o < > & & X + + . X & O X o X X o X . . . .                                       ",
"                                      6.& d d . o < > & O + O . X 2 & . . X X X . X 1 :X9.                                      ",
"                                    U.N & u..X& . & + X & . . X S.L . X X X . . X + <                                           ",
"                                    R.H.Z.    > o . . X . . 1 S.  =XP X . . X X X . M                                           ",
"                                            #XL 7.@.K N : + P         X X < M S @.@.P                                           ",
"                                            > u.(.(.v.9.B O i.        M . S 6.A.(.R.y.                                          ",
"                                          -X& < 1 > & @.6.P             & 7.d & > & + c                                         ",
"                                          J + - > - + M V P             o c + o > > > o P                                       ",
"                                        T.+ V 7.@.6.C M M J             X < S J 6.@.P V +                                       ",
"                                          y.8.D.U.L.9.J P R.            w.9.w.u.L.U.R.i.y.                                      ",
"                                            > o o . > o y.                B & + & & . >                                         ",
"                                                                                                                                ",
"                                                                                                                                ",
"                                                                                                                                ",
"                                                                                                                                "
};
