/* XPM */
static char *dd64f89d24be4f4fc5fe5eaeaa39dcd9EKKPei5RzSNJKKKt[] = {
/* columns rows colors chars-per-pixel */
"64 64 226 2 ",
"   c None",
".  c #040302",
"X  c #0C0303",
"o  c #050905",
"O  c #0A0906",
"+  c #0E0609",
"@  c #0D0C0B",
"#  c #130303",
"$  c #1C0204",
"%  c #140A06",
"&  c #100408",
"*  c #1D050A",
"=  c #130B0B",
"-  c #1B0A0B",
";  c #1C0A06",
":  c #13100D",
">  c #1B120E",
",  c #170F11",
"<  c #151312",
"1  c #1B1413",
"2  c #1D1916",
"3  c #1D1A19",
"4  c #1F1619",
"5  c #230204",
"6  c #2C0105",
"7  c #220509",
"8  c #2D040A",
"9  c #230A0C",
"0  c #290908",
"q  c #3B030B",
"w  c #33090D",
"e  c #37030C",
"r  c #230D12",
"t  c #2D0C12",
"y  c #340C13",
"u  c #3D0B13",
"i  c #380711",
"p  c #231614",
"a  c #2B1614",
"s  c #231618",
"d  c #241C1B",
"f  c #2C1C1D",
"g  c #281916",
"h  c #311315",
"j  c #341319",
"k  c #3C121A",
"l  c #31191B",
"z  c #3A1214",
"x  c #23201D",
"c  c #2A221D",
"v  c #30211E",
"b  c #221F20",
"n  c #331C22",
"m  c #272422",
"M  c #2C2523",
"N  c #2E2B2A",
"B  c #282826",
"V  c #352925",
"C  c #332C2B",
"Z  c #3E2D29",
"A  c #372524",
"S  c #2E312E",
"D  c #3B332D",
"F  c #33322F",
"G  c #343231",
"H  c #3B3533",
"J  c #3D3936",
"K  c #3D3A39",
"L  c #3F3739",
"P  c #47010C",
"I  c #4C0C14",
"U  c #470915",
"Y  c #540B15",
"T  c #540E19",
"R  c #43131D",
"E  c #4A151C",
"W  c #43191B",
"Q  c #491519",
"!  c #55141C",
"~  c #51151A",
"^  c #43130F",
"/  c #431B21",
"(  c #4B1A22",
")  c #5A1A23",
"_  c #462628",
"`  c #54272D",
"'  c #43332E",
"]  c #423634",
"[  c #4D3435",
"{  c #433936",
"}  c #443D3B",
"|  c #4C3A3B",
" . c #4A3C35",
".. c #523334",
"X. c #533B3B",
"o. c #553B39",
"O. c #58312A",
"+. c #6F232F",
"@. c #72202C",
"#. c #682B35",
"$. c #663136",
"%. c #783B3E",
"&. c #7F2D39",
"*. c #46413E",
"=. c #4A403B",
"-. c #52433E",
";. c #58403E",
":. c #453E41",
">. c #7A3940",
",. c #653E42",
"<. c #454443",
"1. c #4B4543",
"2. c #4C4A46",
"3. c #4C4C4A",
"4. c #4A4648",
"5. c #554542",
"6. c #524A44",
"7. c #5C4C46",
"8. c #534C4A",
"9. c #5D4C4B",
"0. c #594447",
"q. c #54514E",
"w. c #5B514D",
"e. c #584E50",
"r. c #555252",
"t. c #5B5452",
"y. c #5C5954",
"u. c #5B5A59",
"i. c #644B47",
"p. c #654849",
"a. c #64544E",
"s. c #625553",
"d. c #635A54",
"f. c #635C5B",
"g. c #6A5C5C",
"h. c #695B57",
"j. c #755A5B",
"k. c #754F4C",
"l. c #6B615C",
"z. c #67625F",
"x. c #74625D",
"c. c #7C685E",
"v. c #646261",
"b. c #6C6463",
"n. c #6D6A6A",
"m. c #7C6463",
"M. c #746A64",
"N. c #7B6B64",
"B. c #736D6C",
"V. c #7C6D6A",
"C. c #766565",
"Z. c #74726D",
"A. c #7B736E",
"S. c #7B7372",
"D. c #7C7875",
"F. c #8C3B4A",
"G. c #9F4D5B",
"H. c #A85162",
"J. c #866A66",
"K. c #966060",
"L. c #86736D",
"P. c #837572",
"I. c #837974",
"U. c #847C79",
"Y. c #897D7A",
"T. c #8B7D76",
"R. c #8E7574",
"E. c #A77674",
"W. c #B47C7D",
"Q. c #8B827E",
"!. c #84827E",
"~. c #90837D",
"^. c #98867E",
"/. c #A2847A",
"(. c #868584",
"). c #8B8482",
"_. c #8C8B8B",
"`. c #8B8983",
"'. c #918684",
"]. c #948A85",
"[. c #9A8C86",
"{. c #958D8A",
"}. c #9A8E8A",
"|. c #9E878A",
" X c #96918E",
".X c #9C918D",
"XX c #918F90",
"oX c #959493",
"OX c #9D9492",
"+X c #9B9B98",
"@X c #A28C8D",
"#X c #AD8E8D",
"$X c #A1938D",
"%X c #AD968B",
"&X c #B4928A",
"*X c #A29692",
"=X c #A59A94",
"-X c #A99C95",
";X c #A39C9B",
":X c #BA9290",
">X c #ABA29D",
",X c #B2A49E",
"<X c #A59FA0",
"1X c #A3A4A3",
"2X c #AFA5A3",
"3X c #ABA8A6",
"4X c #B2ACAC",
"5X c #B8AEA9",
"6X c #B6AAA4",
"7X c #BBB2AD",
"8X c #B7B0AA",
"9X c #BBB5B4",
"0X c #BEBCBD",
"qX c #CA9A98",
"wX c #C2B4AD",
"eX c #C1BDBB",
"rX c #C7B9B1",
"tX c #DCAFAD",
"yX c #C6C1BE",
"uX c #CDC9C7",
"iX c #DEDADB",
"pX c #D8CFD2",
"aX c #F9DCD6",
"sX c #E0DCDD",
"dX c #E5DFE1",
"fX c #F6F2F1",
/* pixels */
"                                                                                                                                ",
"                                                                                                                                ",
"                                                                                                                                ",
"                                                                                                                                ",
"                                                                                                                                ",
"                                            <             q.                                                                    ",
"                                            C           y.S.f.8.<.@                                                             ",
"                                          K b.S.*.} } A.).{.].].S.1.                                                            ",
"                                          oX{.{.{.{.]..X.X].{.{. X(.8.M d 1                                                     ",
"                                      2.S. X].{.{..X].'.'.}..X{.{.{.U.A.b.d                                                     ",
"                                    t.8.U.{.OX{.{.}.$X}..X}.{..X.X{..X.X].}                                                     ",
"                                  F t.{.{.{..X[.[.].[.~.].{.{.}.{.]..X'.}.{.l.                                                  ",
"                                  3 f. X).M.Q..X.X[.~.N.P.].OX{..X}.>X5X5XOXA.*.H m                                             ",
"                                  2 z.{.Q.l..X,X[.[.[.I.P.A.{.].].$X$X=X7XOX).8.O b.                                            ",
"                                  G B.OXY.l.-XwX$X[.}.}.I.h.).*X.X~.[.-X8X{.Q.l.H {.iX                                          ",
"                                H ).2X2XY.M.-XwXwX-X}.[.I.b.>X7X5XN.Y.}.}..X].].S.{ v.                                          ",
"                                m {.5X,XP.s.].>X8X;X}.}.I.z.+X>X=XY.S.).{.U.S.B.8.b.4X                                          ",
"                              Z.x '.>X>XI.6.A.].5X*X{.{.Y.d.!.`.{.].Y.s.'.b.g.8., +X                                            ",
"                              N d g.].OXA.6.d.l.h.P.|.@XJ.X.g.M.b.].].Y.V.b.t.t.< oX          q.S                               ",
"                            v.:.b.C f.B.l.w.8.6.9.L.@X@Xm.o.7.a.C.V.P.P.g.8.e.t.@ 1X          3.. u.                            ",
"                                  2 2.t.9.-.{ { 0.m.}.}.m.[ o.o.s.h.f.s.f.4.2.2.@ +X          3.o r.                            ",
"                                  d 1.s.X.7 # % 5.N.}.M.j.i.L.N. .h.f.f.{ { d O @ +X          2.B K < oX                        ",
"                                    s.X.$.6 i.V.7.x.Z.y.m.T.%Xc. .t.w.8.] } N O <X            8.N } . (.                        ",
"                                    0.k >.) #X5Xx.a.2.d.J.&X%Xc.Z s.| ] } ] g d sX            8.C J < !.                        ",
"                                    p.) F.+.tXaX^.i.=.i.J.&X/.J._ X.[ [ | | f s pX            8.} r.: (.                        ",
"                                  w./ #.H.&.tXaX:Xk.o.J.E.E.O.0 0 j h h j l r s L 9X        <.K u.v.< (.                        ",
"                                  p y #.G.@.W.qXK.$.~ %.%.%.^ 6 6 y k k y t * s e.eX        @ G f.b.= (.                        ",
"                                  | _ E T Y ~ I ! ! ! T T ! Q W ( W R k j t r f dX          . G f.b.= (.                        ",
"                                    p.8 ! ! T ) Y T ! ~ ! Q w w 8 8 8 t y 7 - M             o <.U.).2 (.                        ",
"                                    9.5 e I I T ) T q e i y 5 $ 7 7 9 7 * * 0.2X            o 2.{.OX3 (.                        ",
"                                    5.7 y q T Y T U 6 $ # $ $ * $ # * - - % B.              < 8.OXOX2 (.                        ",
"                                    t.* y ( P P U e t - % X f ] | g # % 1 + g.          v.M e.).<X;X1 (.                        ",
"                                      g.0 E I I U R k $ r a A ;.x.-.p X 2 + f.          q.= t.OX4XXX< (.                        ",
"                                        7 z E E ` y j 9 a A o.a.L.x.V X d + f.        uX*.1 d.6X1X(.r.1X                        ",
"                                        X ; a h a a - H }  .[.J.a.h.v # 1 = b.      uXM C } '.8Xy.3.                            ",
"                                        X g V Z ] d = J y.A.@Xx.5.x.w.] p {.      0Xr.M } 6.2X9Xy.4.                            ",
"                                        + V ' ..Z g X M q.A.M.7.7.T.V.w.p yX    dXB.3 J { f.7X.X                                ",
"                                        - | .._ 0 7 9 # > D D w.L.,X}.l.d yX  fX<.2 } *.d.b.5XM                                 ",
"                                        - ..( u u k 5 # # > l.Q.7X-XM.D > eX9XH G H J } A.;X  H                                 ",
"                                        # _ R i E e y $ # = y.I.[.A.l.d.=.M.y.2 G *.8.q.OX>X                                    ",
"                                        X * t k W y y 9 - # 8.f.h.7.M.~.I.d : J H t.B.D.3X                                      ",
"                                        O # 9 0 5 ` p.[ f X - } a.$XrX6XY.c : H 8.Z.oXiXD.                                      ",
"                                        : <.5.X..._ _ l 9 % . p ' l.~.].A.c = J b.+X3Xv.                                        ",
"                                        @ r.h.j.,.z 5 0 * - X X % g -.V.b.f > J U.eX  2.                                        ",
"                                        . X r / u u W W h * & = p  .-.-.V % 1 1.eX  H                                           ",
"                                        @ = 7 y u U E w 7 r H V > c.T.V.9.C C f.f.                                              ",
"                                        o d * $ E Q E 6 # r :.C X V.$X~.h.{ H z.3                                               ",
"                                        < 4 * $ k ( k 5 # # + + X V.Y.6.1 d x M @                                               ",
"                                          b & X * r n - X + . + 2 m M < <                                                       ",
"                                          b X . X = s , = , o @ < o F 4.u.                                                      ",
"                                          C @ @ + X = = 1 2 O O @ . _.                                                          ",
"                                            n.. + = 1 s d 3 O o o . oX                                                          ",
"                                            `.. . = 1 > = : o @ @ . oX                                                          ",
"                                            (.O O = + % = 1 @ O O o oX                                                          ",
"                                            _.@ 2.w.w.B.A.A.y.2.3.< _.                                                          ",
"                                            3.= C H ] t.w.8.J H J @                                                             ",
"                                          G @ < d d c M s 1 1 2 3 o                                                             ",
"                                          G K B.).'.{.Q.b.w.8.t.2.2                                                             ",
"                                            n.d J J } { V d d d x                                                               ",
"                                              1.4.:.1.1.4.4.4.<.4.                                                              ",
"                                                                                                                                ",
"                                                                                                                                ",
"                                                                                                                                ",
"                                                                                                                                "
};
