/* XPM */
static char *_74d708b27d946c6a4563f6dd3837583niodnxMGZNbLJMxA[] = {
/* columns rows colors chars-per-pixel */
"64 64 230 2 ",
"   c None",
".  c #040302",
"X  c #0C0303",
"o  c #060805",
"O  c #0A0906",
"+  c #0D0609",
"@  c #0D0B0B",
"#  c #130303",
"$  c #1B0204",
"%  c #100409",
"&  c #1C050A",
"*  c #130B0B",
"=  c #1C0A0C",
"-  c #170B06",
";  c #0E100D",
":  c #14100E",
">  c #1B120E",
",  c #160E11",
"<  c #151313",
"1  c #1B1413",
"2  c #1D1A19",
"3  c #1D1816",
"4  c #230204",
"5  c #2D0204",
"6  c #22050A",
"7  c #2C030B",
"8  c #22090C",
"9  c #2B080B",
"0  c #2C0B04",
"q  c #34090D",
"w  c #39030C",
"e  c #240D12",
"r  c #2D0C12",
"t  c #340C13",
"y  c #3C0C13",
"u  c #380410",
"i  c #231615",
"p  c #2A1513",
"a  c #221917",
"s  c #231618",
"d  c #241C1B",
"f  c #2B1C1D",
"g  c #2B1816",
"h  c #311115",
"j  c #341319",
"k  c #3C121A",
"l  c #351617",
"z  c #2A211F",
"x  c #22211F",
"c  c #33261E",
"v  c #221F20",
"b  c #331C22",
"n  c #272525",
"m  c #2B2524",
"M  c #2F2C2A",
"N  c #2B2925",
"B  c #342927",
"V  c #322C2B",
"C  c #3D2D2A",
"Z  c #382625",
"A  c #2F322E",
"S  c #3B332E",
"D  c #36322F",
"F  c #312F30",
"G  c #353332",
"H  c #3B3533",
"J  c #3D3936",
"K  c #3D3A39",
"L  c #3F3639",
"P  c #48000E",
"I  c #4C0C14",
"U  c #460814",
"Y  c #540B14",
"T  c #540C19",
"R  c #44141D",
"E  c #4A141C",
"W  c #43191B",
"Q  c #4A161A",
"!  c #55141C",
"~  c #55171D",
"^  c #41140E",
"/  c #431B22",
"(  c #4C1821",
")  c #591823",
"_  c #452728",
"`  c #52262B",
"'  c #423635",
"]  c #4C3334",
"[  c #443935",
"{  c #4C3A36",
"}  c #443D3B",
"|  c #4C3A3B",
" . c #533336",
".. c #533A35",
"X. c #533B3B",
"o. c #553B3B",
"O. c #4C332B",
"+. c #6F232F",
"@. c #672C36",
"#. c #663136",
"$. c #793B3E",
"%. c #792633",
"&. c #45413E",
"*. c #4A413A",
"=. c #53433E",
"-. c #58403E",
";. c #463E41",
":. c #7A3840",
">. c #653E43",
",. c #454343",
"<. c #4B4544",
"1. c #4B4946",
"2. c #4D4C4A",
"3. c #494748",
"4. c #544442",
"5. c #524B43",
"6. c #5D4C45",
"7. c #534C4B",
"8. c #5C4D4A",
"9. c #594548",
"0. c #4F5049",
"q. c #55514E",
"w. c #5B524E",
"e. c #585147",
"r. c #584E51",
"t. c #565353",
"y. c #5B5453",
"u. c #5D5A54",
"i. c #5E5B5A",
"p. c #585758",
"a. c #664B49",
"s. c #64554E",
"d. c #615453",
"f. c #645A56",
"g. c #635C5A",
"h. c #695D5B",
"j. c #6B5858",
"k. c #775556",
"l. c #64615E",
"z. c #6A615C",
"x. c #74615D",
"c. c #7D685E",
"v. c #656362",
"b. c #6C6563",
"n. c #6C6969",
"m. c #726462",
"M. c #7B6464",
"N. c #746A64",
"B. c #7A6A64",
"V. c #736C6B",
"C. c #7C6D6B",
"Z. c #74706E",
"A. c #7B736E",
"S. c #76786B",
"D. c #757472",
"F. c #7A7472",
"G. c #7D7A79",
"H. c #7E7975",
"J. c #8C3A4A",
"K. c #9F4D5B",
"L. c #975F62",
"P. c #A85162",
"I. c #876B65",
"U. c #86746E",
"Y. c #837572",
"T. c #847A75",
"R. c #847D7B",
"E. c #8A7D7B",
"W. c #897C76",
"Q. c #8D7673",
"!. c #A87573",
"~. c #B67B7D",
"^. c #8B827D",
"/. c #87847D",
"(. c #91837E",
"). c #9F847D",
"_. c #A28479",
"`. c #878685",
"'. c #8A8483",
"]. c #8C8C8B",
"[. c #8A8987",
"{. c #928684",
"}. c #948A85",
"|. c #9A8C86",
" X c #958C8A",
".X c #9A8D8A",
"XX c #9D8789",
"oX c #95918E",
"OX c #9C928D",
"+X c #918F90",
"@X c #959392",
"#X c #9C9492",
"$X c #9B9C9A",
"%X c #8E9291",
"&X c #A48C8A",
"*X c #A1938C",
"=X c #AE958A",
"-X c #A29693",
";X c #A49A93",
":X c #A89C95",
">X c #A29D9B",
",X c #B9928D",
"<X c #ABA39C",
"1X c #B1A39C",
"2X c #A59FA0",
"3X c #ADA4A2",
"4X c #A8A6A5",
"5X c #B2ABA5",
"6X c #B8AEAA",
"7X c #B7ABA5",
"8X c #BBB2AC",
"9X c #B6B0AA",
"0X c #BBB5B4",
"qX c #BAB8B8",
"wX c #CB9899",
"eX c #C3B5AD",
"rX c #C1BDBC",
"tX c #C4B9B3",
"yX c #DDB1B0",
"uX c #DEABAA",
"iX c #C6C1BE",
"pX c #CDC7C7",
"aX c #C7C5C3",
"sX c #D9D2D3",
"dX c #E0DDDD",
"fX c #FADCD6",
"gX c #EAE3DD",
"hX c #E5DFE1",
"jX c #E7E5E4",
"kX c #F6F2F3",
/* pixels */
"                                                                                                                                ",
"                                                                                                                                ",
"                                                                                                                                ",
"                                                                                                                                ",
"                                                                    y.          v.l.                                            ",
"                                                          G n G V D 7.H v.      v.< F                                           ",
"                                                          l.@ ,.7.g.F.u.u.H.F.F.n.M . aX                                        ",
"                                                           X,.F.}.}. X'.A.} } &.F.v.K D.                                        ",
"                                                G n 1 d n 7.'.oX X X{.OXOX}. X X X X@XG ].                                      ",
"                                                  v.d v.A.R. X X XOX.X{.{. XOX X X}.oXD.1.G.                                    ",
"                                                  V.} {.#XOX XOXOX X.XOX.XOX.X X XOX XR.7.y.0X                                  ",
"                                                H z. XOX{.OX{. X.X X X}.(.|.}.|..XOX X X Xy.G                                   ",
"                                          p.n H &.A.-X6X6X<X.XOX X#X}.Y.B.(.|.OXOX^.N.'.oXi.2 jX                                ",
"                                            v.X 7.'.#X8X;XOX*X}.}. XA.Y.T.|.|..X1XOXz.^. Xl.3 jX                                ",
"                                              G z.^..X8X:X|.(.OX-X'.f.T..X.X|.*XeX:Xz.R.#XV.G qX                                ",
"                                          v.} F.{.{.OX.X.XW.B.6X8X<Xm.T.|..X:X8XeX;XB.W.1X3X'.H [.                              ",
"                                            n.7.C.F.T. X'.A.E.;X<X$Xv.T. X.X>X9X<X}.d.Y.1X7X Xz G.                              ",
"                                i.            , 7.h.m.{.d.R.}. X[./.f.R. X X#X5X{.A.5.U.<X1X{.d Z.                              ",
"                              A q.            < y.y.b.C.E.}.}.b.N.h.X.C.XXXXY.f.z.u.5.A.OX{.h.d M `.                            ",
"                            i.. 2.            @ t.r.7.h.Y.Y.C.m.s.6...M.&XXXU.8.5.0.e.z.V.h.B b.&.v.                            ",
"                            t.o 2.          $X@ 1.1.4.f.d.h.f.d.....] M.XX|.B.4.[ [ =.8.y.1.3 pX4XD.                            ",
"                        @X< K n 1.          $X@ O d [ } f.f.f.[ B.U.a.j.N.OXB.=.- # 6 o.d.<.d pX                                ",
"                        '.. } M 2.            2XO M } ' 7.w.y.[ c.=XQ.B.u.S.x.6.B.6.5 #.o.d.$X                                  ",
"                        R.< J V 7.            dXd d ' [ ' | d.C c.=X=XI.u.5.s.x.7X=X) $.k 9.                                    ",
"                        '.: t.} 7.            sXs f | | ] ] | _ c._.,XI.a.*.a.).fXyX+.J.) a.                                    ",
"                        '.< v.i.} ,.        0XL s e l j h h j 9 0 O.!.!.I...k.,XfXuX%.P.@./ t.                                  ",
"                        '.* b.g.G O         rXr.s & r t k k t 5 5 ^ $.:.$.~ #.L.wX~.+.K.@.t i                                   ",
"                        '.* b.g.G .           hXb e r j k R / ( W Q ! T T ! ! ! I ! Y T E _ |                                   ",
"                        '.1 '.G.,.o             m = 6 t r 7 7 7 q q Q ! ! ) T Y ) T ! ~ 7 9.                                    ",
"                        '.2 #X X1.o             3X9.& & 6 8 6 6 $ 4 t q u w T ) T I I y 6 8.                                    ",
"                        '.1 #X#X7.<               V.& & & $ # $ & $ $ # $ 7 U T T T w t 6 <.                                    ",
"                        '.1 >X2X'.w.n v.          l.+ 1 - # d [ ] f X - 8 r w U P P ( t & y.                                    ",
"                        `.< +X9X#Xw.: q.          i.+ 3 X i 4.x.-.Z p e $ k R U T U E 9 j.pX                                    ",
"                          t.`.4X5Xf.1 &.          g.+ d # B m.U.a.o.Z p 8 j t ` E E y 6 }.                                      ",
"                            2.p.9X{.} V N pX      n., 1 # m j.s.I.&X{ } H = p p p l - X #X                                      ",
"                            3.p.0X<X5.} n t.qX       Xa H w.m.4.x.&XC.u.J * d ' C c a O ].                                      ",
"                            D.D.OX8Xg.J H 2 V.hX    aXa w.C.W.8.6.B.A.q.n X g C .._ B * '.                                      ",
"                              oXN 9Xb.u.&.} 3 ,.kX  iXd z..X5XY.e.S S > X 8 6 9 _  .{ - ].                                      ",
"                               XH gX>XA.} J H G H 0XrX> S N.:X9X^.l.> # # 4 k y y `  .$ }.                                      ",
"                                #XOX<X#Xq.7.&.G 2 u.V.*.f.z.A..XH.u.* # $ t w E y y _ &  X                                      ",
"                                  t.3X5XG.V.y.H J : d T.{.N.6.h.h.7.+ & 8 h y W k r & X ].                                      ",
"                                    Z.G.dX@XZ.7.H : z E.5XtX*Xf.} * X z { a.` 4 9 8 # X `.                                      ",
"                                      F.v.4X>Xv.J * z A.}.(.x.' i . - = l _ _  .o.4.,.: ].                                      ",
"                                        1.qXrXR.J 1 d z.C.=.g # + X = & 8 4 y >.x.j.t.; %X                                      ",
"                                          H R.rX,.3 - B 4.4.{ i * % & g W W y y / e X . [.                                      ",
"                                            [.g.h.B C 8.C.E.B.> B H e 6 q E U y t 6 * O ].                                      ",
"                                              2 z.G [ f.(.-XC.X V ;.e # 5 Q E E $ & d . ].                                      ",
"                                              * n d d 1 4.E.C.X X % # # 4 k / k $ = 2 <                                         ",
"                                            n ;.      < < n n 1 + . + X = b e & X % v                                           ",
"                                            q.        t.3.G . < O . < , , d * X . X v                                           ",
"                                                          ].. @ O O 1 1 * * X + @ @ V                                           ",
"                                                          @X. . . O d d s , % + . n.                                            ",
"                                                            . O O o * * > > * . . '.                                            ",
"                                                            . O O @ 1 * * + * O O '.                                            ",
"                                                            < 2.1.u.A.A.V.w.w.1.@ [.                                            ",
"                                                            @ J H J 7.w.y.' H V * 2.                                            ",
"                                                            . 2 3 1 1 a m z d d 1 @ G                                           ",
"                                                            3 1.t.7.8.b.^. X{.'.V.K G                                           ",
"                                                              x d d d B [ [ ' L d n.                                            ",
"                                                              3.,.<.<.<.<.&.;.<.<.                                              ",
"                                                                                                                                ",
"                                                                                                                                ",
"                                                                                                                                ",
"                                                                                                                                "
};
