/* XPM */
static char *_34b787421a64de889fc880fd1840147Pb2nr95UgvQXdXpO[] = {
/* columns rows colors chars-per-pixel */
"64 64 227 2 ",
"   c None",
".  c #050301",
"X  c #0B0201",
"o  c #0B0906",
"O  c #0D0C0B",
"+  c #070708",
"@  c #140303",
"#  c #1B0203",
"$  c #120A05",
"%  c #1D0609",
"&  c #130C0B",
"*  c #1B0A0A",
"=  c #170408",
"-  c #13110E",
";  c #1B110D",
":  c #151512",
">  c #1B1514",
",  c #171812",
"<  c #1B1916",
"1  c #1D1C1A",
"2  c #171518",
"3  c #240204",
"4  c #23060A",
"5  c #2B050A",
"6  c #230A0C",
"7  c #2B0B0D",
"8  c #260406",
"9  c #320005",
"0  c #3C0007",
"q  c #33060C",
"w  c #3D040D",
"e  c #33090D",
"r  c #3B090F",
"t  c #2C0C11",
"y  c #210E10",
"u  c #3D0711",
"i  c #340C13",
"p  c #3A0C11",
"a  c #3A0F18",
"s  c #231514",
"d  c #2B1213",
"f  c #221916",
"g  c #231D1C",
"h  c #2C1C1B",
"j  c #2A151A",
"k  c #321313",
"l  c #3C1415",
"z  c #331816",
"x  c #3B141B",
"c  c #351C1C",
"v  c #3B1D1D",
"b  c #35171A",
"n  c #23221E",
"m  c #2B221D",
"M  c #33211E",
"N  c #3B231F",
"B  c #1F1D20",
"V  c #251E20",
"C  c #3B1D21",
"Z  c #1A2221",
"A  c #252323",
"S  c #2A2424",
"D  c #2D2B2A",
"F  c #292926",
"G  c #342423",
"H  c #3B2324",
"J  c #332D2C",
"K  c #3D2B2B",
"L  c #352926",
"P  c #35322E",
"I  c #3C312F",
"U  c #322F30",
"Y  c #363332",
"T  c #3A3534",
"R  c #3B3837",
"E  c #3D3B3A",
"W  c #3A3738",
"Q  c #43030C",
"!  c #4A0612",
"~  c #440B14",
"^  c #4A0D16",
"/  c #450E19",
"(  c #4D0E19",
")  c #410710",
"_  c #540E19",
"`  c #5A0D1A",
"'  c #540915",
"]  c #431115",
"[  c #45141B",
"{  c #4D121A",
"}  c #43191A",
"|  c #54121C",
" . c #5A111D",
".. c #62121F",
"X. c #4C1822",
"o. c #551521",
"O. c #5B1322",
"+. c #571F28",
"@. c #561A23",
"#. c #422424",
"$. c #452B27",
"%. c #492529",
"&. c #4B2A2C",
"*. c #442829",
"=. c #53272B",
"-. c #46332E",
";. c #452F32",
":. c #592D33",
">. c #443434",
",. c #4B3433",
"<. c #423D3C",
"1. c #4B3C3B",
"2. c #463936",
"3. c #533534",
"4. c #5C3536",
"5. c #5B3539",
"6. c #543C3B",
"7. c #5B3A3A",
"8. c #573737",
"9. c #612A30",
"0. c #44423E",
"q. c #48433F",
"w. c #55413E",
"e. c #454342",
"r. c #4A4544",
"t. c #4A4946",
"y. c #4E4C4B",
"u. c #544444",
"i. c #5B4444",
"p. c #534D4B",
"a. c #5C4D4D",
"s. c #534846",
"d. c #53524D",
"f. c #5A504F",
"g. c #544F50",
"h. c #555352",
"j. c #5B5453",
"k. c #5B5956",
"l. c #5E5A5A",
"z. c #634C4D",
"x. c #6A4C4E",
"c. c #674646",
"v. c #635453",
"b. c #6A5654",
"n. c #645956",
"m. c #635C5B",
"M. c #6B5C5B",
"N. c #665856",
"B. c #715D5C",
"V. c #755757",
"C. c #675050",
"Z. c #5C615D",
"A. c #65615E",
"S. c #6A605E",
"D. c #75635E",
"F. c #6A5F61",
"G. c #656262",
"H. c #6B6463",
"J. c #6C6A66",
"K. c #6D6B6A",
"L. c #686769",
"P. c #736564",
"I. c #716966",
"U. c #736C6B",
"Y. c #7B6C6B",
"T. c #7B6764",
"R. c #72706B",
"E. c #7A716F",
"W. c #757372",
"Q. c #7B7473",
"!. c #7B7A76",
"~. c #7D7B7A",
"^. c #786F70",
"/. c #8A6C6C",
"(. c #836968",
"). c #827574",
"_. c #827977",
"`. c #827C7C",
"'. c #8B7D7C",
"]. c #8C7372",
"[. c #937575",
"{. c #99797A",
"}. c #82827C",
"|. c #8A817F",
" X c #9A807F",
".X c #857E82",
"XX c #7E8480",
"oX c #858382",
"OX c #8B8482",
"+X c #8D8985",
"@X c #8C8A89",
"#X c #8A8887",
"$X c #928583",
"%X c #948A86",
"&X c #998C86",
"*X c #958C8A",
"=X c #998E8A",
"-X c #9B918D",
";X c #94908F",
":X c #969493",
">X c #9B9393",
",X c #9C9C9B",
"<X c #969898",
"1X c #918F92",
"2X c #A29592",
"3X c #A69A94",
"4X c #A29C9C",
"5X c #AB9D9A",
"6X c #A4978F",
"7X c #A5A29F",
"8X c #ABA19F",
"9X c #B2A49D",
"0X c #A4A3A3",
"qX c #AAA4A3",
"wX c #A9A9A6",
"eX c #ADAAA9",
"rX c #B1ACAB",
"tX c #BCAFAC",
"yX c #B6AAA4",
"uX c #BEB1AC",
"iX c #B4B0AF",
"pX c #BBB7B6",
"aX c #C3B8B5",
"sX c #C0B3AD",
"dX c #CBC9C7",
"fX c #DAD9D9",
"gX c #E4E3E4",
/* pixels */
"                                                                                                                                ",
"                                                                                                                                ",
"                                                            W.l.          G.                                                    ",
"                                                          L.1 y.        G.g ~.                                                  ",
"                                                        pXt.Y h.rX7XeX>X<.Y G.:X~.!.U.                                          ",
"                                              F 2 2 1 g 1 G.m.l.f g S J H.A.E n J & 1 oX                                        ",
"                                                & m.~.oX+X+X$X$XU.|.OX%X$X*X%X>X*XJ <.                                          ",
"                                                & Y l.`.=X=X-X$X_.*X*X=X>X*X-XOXE.p.<.:X                                        ",
"                                                A f 2.U.$X=X-X*X=X=X-X%X=X%X=X$XT.H.j.l.                                        ",
"                                            +X<.`.oXoX+X-X>X=X=X*X%X=X%X=X%X=X%X*X$X|.L.F 2 2 .X                                ",
"                                          H.r.m.*X-X-X*X*X%X*X-X*X*X=X*X-X&X&X-X=X=X$X`.J.F 1X                                  ",
"                                      E Y : J m.*XU.Q.*X-X=X-X$X=X=X=X=X-X&X%X-X$X2X_.U.<.W.                                    ",
"                                      G.: < P I.|.Y._.-X=X%X&X&X=X*X%X*X&X=X&X&X-X%X|._.R :X                                    ",
"                                        R p.m.m.I.OX=X*X-X-X=X-X*X*X%X=X&X3X6X&X%X-X3XOXS.S wX                                  ",
"                                          e.T Y.|.>X=X-XtXsX3X%X=X=X=X-X&XyX9X&X&XuX2XoXH.D *X                                  ",
"                          ~.              t.J I.>X*X$X3XuXsX5X&X*X*X=X-X=XyXyX&X=XuX5X*XH.A 5X            D                     ",
"                      #Xe.K.              r.Y I.=XE.'.2XtXaX5X$XY.$X-X*X_.2X3X=X&X$X=XOXI.a.I.#X          : K.                  ",
"                      U + W.              h.T J.'.I.T.$XtX8X2X$XP.'.*X'.S.|.$X'.|.P.Y.OXF.j.j.<.          - O k.                ",
"                    O <.B K.              K.J F.m.M.m.I.OXH.!.}.m.`.=X$XH.|._.S.M.n.H.m.G.J ,X            + E F Y               ",
"                    2 W A L.              W.R m.m.M.n.S.E.A.}.+Xm.U.Q.E.m.oX_.n.m.n.M.j.l.1 <X            O E A e.              ",
"                  :XR Y l.                e.< R j.f.a.M.M.M.Y.Y.M.M.v.n.v.$X'.M.M.a.j.M.m.A ,X              E Y H.              ",
"                t.E oXF                 h.r.F & d.1.1.b.v.b.b.B.M.M.b.M.S.'.Y.v.v.1.u.m.p.1 0X              e.E }.1             ",
"                E Y oXJ                     ,X< f.1.>.i.b.P.B.M.B.B.M.b.b.D.M.v.,.>.u.n.$ . 0X              r.R `.:             ",
"                <.R oXA                     q.s H *.C v &.%.%.%.&.&.&.%.&.&.%.&.#.H ;.K G o 4X              e.E ~.1             ",
"                e.J oXA                   G.* j k i i u r r r r ) Q r r r r r r / [ x x b 6 ).              e.R U.2             ",
"                <.R W.F                   Q.* t x x [ X.o.o.o. ._  .o.o. .|  . .| / X.a t j ;..X            r.R `.g             ",
"              R.p.m.J.F                     m.= % 5 e ~ (  . . . .|  .{ ) 0 Q Q u 9 5 7 % 5X                r.T Q.W.A.          ",
"              J W.%XJ.A                     H.= # 3 9 0 Q ! ' ' ! ) ) Q 0 0 w u u x i 4 * *X                e.Y Q.4X<.~.        ",
"              P +XqX^.A                   s.y d i i r Q Q Q Q Q Q 0 0 0 0 Q Q ~ { [ t d $ X XX              e.J ~.eXe.oX        ",
"              D $XqXI.A                 E pX'.# x [ { { | _ _ _ | | | | | | _ { 9 e i 4 = - A <X            e.J Q.rX<.oX        ",
"              P -X5Xf.A                   `.j.s 6 7 p ~ { |  . .` ` ` ` ` ` _ _ ~ / 5 4 j =XpX              e.D U.qXr.oX        ",
"              P qX7XE g                   t.A G * 4 7 p ] { { |  . . .` _ _ _ { ~ X.C d 1.8X                <.F G.fXr.oX        ",
"              Y qXiXY 1                 L >.v.v.2.H k z l l [ { { { ^ | ^ ^ p e v G >.6.z.K R.              r.g m.gXd.~.        ",
"              Y iXqXY <                 g 1.1.K K h d z k l l l p } l l ] [ l z f S J >.H * m.              e.g y.fXd.oX        ",
"              Y rX0X<.1                 S I.S.2.f s M -.$.&.#.l z $.#.z &.=.%.,.2.m s K a.K S.              e.1 h.fXh.#X        ",
"              R eXpXY 1 :X              1 A.R.p.X $ m w.1.3.$.v N -.-.#.4.4.3.6.1.* * G Y.>.H.              <.F h.  h.oX        ",
"              D eXwXR E J L.            n q.p.q.& & m 1.6.6.8.3.,.3.3.:.4.4.8.3.6.; h I u.S J.            D D e.l.  y.          ",
"              Y wXwX<.E n h.          l.A.G.Y & X X & M -.3.3.7.7.3.7.7.4.4.7.,.6 @ G v.>.I 0.#X          O U h.#X  h.          ",
"              #XW.W.!.e.D t.        >X> +X~.p.f X X * d 3.7.8.&.3.3.3.8.3.7.&.c @ @ h 1.1.p.T d.          1 E G.wXoX~.          ",
"                h.t.pXh.e.R Y       `.V _.oXT.>.= * 6 6 3.3.&.x 3.7.8.8.3.3.v % 6 # * s P.).s.j.        1 p.<.~.  F             ",
"                h.h.dXy.r.R Y     *Xf R <.J.G.R = = * 6 k k i e :.4.=.p k v k 4 4 @ M b.$XB.u.>.p.      2 l.y.W.  1             ",
"                  oX#X*Xh.E E oX  `.D l.U.G.<.S X h K C 7 8 7 [ +.9.@.r e k 7 7 C v H >.v.P.M.u.f   7Xm.D h.oXoX~.              ",
"                  7XD dXQ.r.p.D ~.r.A J.wXK.n . X 2.v.i.#.c z %.o.O.| ~ l x v #.x.i.G $ J I.).n.f *XR g e.e.  0XD               ",
"                    R eXU.E e.r.1 O + Y @X!.t.$ @ 2.z.x.x.V.x.x.=.+.=.:.c.V./. X{.b.L g R.}.k.; X o J <.r.e.    Y               ",
"                      k.+XeXD <.d.n - P t.L s # 4 v #.#.x.].{.{.{.{.[.[.].P.b.b.&.z * > d.P > ; X g t.<.j.dXh.oX                ",
"                      Y :X  <.<.P g : J > = # 4 5 i i q 5.V././.(.(././.T.C.8.3.p x 7 s n , . $ ; < J R W.  E oX                ",
"                      k.>XaXp.r.* g K >.h @ # q [ { / w u p r q r p e q e q e ~ ( o.p # X ; s s s X S r.U.dXl.                  ",
"                        W.h.4XJ * u.'.B.C.t 5 e [ { ( | ( { { { ( | { ( | | { ( O.' ~ q # h w.z.a.$ S H.`.D                     ",
"                        K.g.  T * b.2XT.x.k 5 ] ~ ^ _  ._ ` ` `  . .` ` `  .| | `  .{ l # d c.[.'.& S J.>X-                     ",
"                          oXoXt.f -.T.T.i.k 3 5 r w ~ |  ._ ` ` _ ` ` ..`  .|  .! Q r } 3 $.b.(.M.$ <.U.~.Q.                    ",
"                          :XF h.: $ h p.X h d # 6 3 8 r [ [ / (  .| ^ ] )  . .~ 9 3 i k 3 7.(.n.& . I.J.T                       ",
"                        K.F g.1 2 1 & - X s f X @ @ @ 3 x i 5 3 / ] i 5 9 [ X.[ t 4 @ # d % . - o - X D h.X                     ",
"                        K.O r.          1 2 & X X $ = = s * @ % 4 d d % # 3 i x # # X @ s & t.        ~.g 2                     ",
"                                        F W.h.. . O & X & $ R Q.> M.*XY.s = = * * X X 1 W.                                      ",
"                                        l.  @X1 1 V A < > o n.  h.      S 2 1 F f g g W                                         ",
"                                          j.U l.@X@X*XoXm.A J.          F r.K.#X$X>XQ.y.Z                                       ",
"                                          0.g R l.J.m.m.r.< Q.          D D y.J.L.m.l.E 1                                       ",
"                                          0.. + O . X o o m.            W.A O X O O & & &                                       ",
"                                          Z.< : , : : 1 <                 J.> g 1 : : : S                                       ",
"                                            ~.O . . . D                     OXo . + . J                                         ",
"                                                                                                                                ",
"                                                                                                                                ",
"                                                                                                                                ",
"                                                                                                                                "
};
